<?xml version="1.0" standalone="no"?>
<!DOCTYPE svg PUBLIC "-//W3C//DTD SVG 20010904//EN"
 "http://www.w3.org/TR/2001/REC-SVG-20010904/DTD/svg10.dtd">
<svg version="1.0" xmlns="http://www.w3.org/2000/svg"
 width="700.000000pt" height="700.000000pt" viewBox="0 0 700.000000 700.000000"
 preserveAspectRatio="xMidYMid meet">
<metadata>
Created by potrace 1.14, written by Peter Selinger 2001-2017
</metadata>
<g transform="translate(0.000000,700.000000) scale(0.100000,-0.100000)"
fill="#000000" stroke="none">
<path d="M1599 6986 c-2 -2 -47 -7 -99 -10 -260 -17 -453 -68 -664 -173 -271
-136 -522 -386 -644 -643 -28 -59 -87 -226 -96 -275 -3 -11 -11 -51 -19 -90
-8 -38 -18 -95 -22 -125 -4 -30 -9 -67 -11 -82 -6 -42 -12 -101 -21 -228 -11
-151 -10 -3521 0 -3670 14 -188 28 -317 43 -395 3 -11 7 -36 10 -55 36 -219
137 -469 250 -620 225 -300 561 -506 934 -573 96 -18 147 -24 282 -37 102 -9
3732 -7 3788 3 19 3 73 9 120 12 47 4 92 9 101 10 9 2 40 6 70 10 30 4 72 10
94 15 22 5 56 12 75 15 134 23 356 104 465 169 113 66 219 151 305 242 261
277 390 585 428 1024 9 114 9 3727 -1 3855 -4 55 -9 116 -12 135 -2 19 -7 55
-10 80 -47 386 -202 735 -425 960 -119 120 -169 158 -300 227 -202 106 -440
167 -780 198 -36 3 -90 9 -120 12 -62 7 -3734 16 -3741 9z"/>
</g>
</svg>
