<?xml version="1.0" encoding="utf-8"?>
<svg version="1.1" id="Layer_2" xmlns="http://www.w3.org/2000/svg" xmlns:xlink="http://www.w3.org/1999/xlink" x="0px" y="0px"
	 viewBox="0 0 1200 4000" style="enable-background:new 0 0 1200 4000;" xml:space="preserve">
<g>
	<g>
		<linearGradient id="SVGID_1_" gradientUnits="userSpaceOnUse" x1="72.5744" y1="22.3364" x2="1177.5677" y2="22.3364">
			<stop  offset="4.102951e-03" style="stop-color:#000000;stop-opacity:0"/>
			<stop  offset="3.953034e-02" style="stop-color:#000000;stop-opacity:7.144105e-02"/>
			<stop  offset="0.5" style="stop-color:#000000"/>
			<stop  offset="1" style="stop-color:#000000;stop-opacity:0"/>
		</linearGradient>
		<path style="fill:url(#SVGID_1_);" d="M79.5,0c0.2,14.9,1.1,29.8,2.6,44.6l-1.3,0.1C79.7,29.8,79.3,14.9,79.5,0z"/>
		
			<linearGradient id="SVGID_00000009592219162662183440000010000636707043980201_" gradientUnits="userSpaceOnUse" x1="72.5744" y1="94.2653" x2="1177.5677" y2="94.2653">
			<stop  offset="4.102951e-03" style="stop-color:#000000;stop-opacity:0"/>
			<stop  offset="3.953034e-02" style="stop-color:#000000;stop-opacity:7.144105e-02"/>
			<stop  offset="0.5" style="stop-color:#000000"/>
			<stop  offset="1" style="stop-color:#000000;stop-opacity:0"/>
		</linearGradient>
		<path style="fill:url(#SVGID_00000009592219162662183440000010000636707043980201_);" d="M85.7,72.1c2.3,14.7,5.4,29.2,9.1,43.6
			l-3.2,0.8c-3.3-14.6-6-29.3-7.9-44.1L85.7,72.1z"/>
		
			<linearGradient id="SVGID_00000007409438217611480640000003344962661876742534_" gradientUnits="userSpaceOnUse" x1="72.5744" y1="164.0878" x2="1177.5677" y2="164.0878">
			<stop  offset="4.102951e-03" style="stop-color:#000000;stop-opacity:0"/>
			<stop  offset="3.953034e-02" style="stop-color:#000000;stop-opacity:7.144105e-02"/>
			<stop  offset="0.5" style="stop-color:#000000"/>
			<stop  offset="1" style="stop-color:#000000;stop-opacity:0"/>
		</linearGradient>
		<path style="fill:url(#SVGID_00000007409438217611480640000003344962661876742534_);" d="M102.4,142.3c4.5,14.1,9.7,28,15.5,41.7
			l-4.8,2c-5.5-13.9-10.4-28.1-14.6-42.4L102.4,142.3z"/>
		
			<linearGradient id="SVGID_00000114073138871577962770000012913069110615772598_" gradientUnits="userSpaceOnUse" x1="72.5744" y1="230.3398" x2="1177.5677" y2="230.3398">
			<stop  offset="4.102951e-03" style="stop-color:#000000;stop-opacity:0"/>
			<stop  offset="3.953034e-02" style="stop-color:#000000;stop-opacity:7.144105e-02"/>
			<stop  offset="0.5" style="stop-color:#000000"/>
			<stop  offset="1" style="stop-color:#000000;stop-opacity:0"/>
		</linearGradient>
		<path style="fill:url(#SVGID_00000114073138871577962770000012913069110615772598_);" d="M129.4,209.1c6.5,13.3,13.6,26.3,21.2,39
			l-6.1,3.5c-7.3-13.1-14.2-26.4-20.4-40L129.4,209.1z"/>
		
			<linearGradient id="SVGID_00000032637635415263249670000017676191912641205398_" gradientUnits="userSpaceOnUse" x1="72.5744" y1="292.2545" x2="1177.5677" y2="292.2545">
			<stop  offset="4.102951e-03" style="stop-color:#000000;stop-opacity:0"/>
			<stop  offset="3.953034e-02" style="stop-color:#000000;stop-opacity:7.144105e-02"/>
			<stop  offset="0.5" style="stop-color:#000000"/>
			<stop  offset="1" style="stop-color:#000000;stop-opacity:0"/>
		</linearGradient>
		<path style="fill:url(#SVGID_00000032637635415263249670000017676191912641205398_);" d="M165.3,271.5
			c8.1,12.4,16.7,24.4,25.6,36.3l-7.1,5.2c-8.7-12.2-17.1-24.6-25-37.3L165.3,271.5z"/>
		
			<linearGradient id="SVGID_00000117660500764346439640000011581023571721607862_" gradientUnits="userSpaceOnUse" x1="72.5744" y1="349.9965" x2="1177.5677" y2="349.9965">
			<stop  offset="4.102951e-03" style="stop-color:#000000;stop-opacity:0"/>
			<stop  offset="3.953034e-02" style="stop-color:#000000;stop-opacity:7.144105e-02"/>
			<stop  offset="0.5" style="stop-color:#000000"/>
			<stop  offset="1" style="stop-color:#000000;stop-opacity:0"/>
		</linearGradient>
		<path style="fill:url(#SVGID_00000117660500764346439640000011581023571721607862_);" d="M207.8,329.6c9.3,11.5,18.9,22.9,28.7,34
			l-7.9,6.8c-9.6-11.4-19-23.1-28.2-34.9L207.8,329.6z"/>
		
			<linearGradient id="SVGID_00000073714491332213117710000008208847790631639698_" gradientUnits="userSpaceOnUse" x1="72.5744" y1="404.4932" x2="1177.5677" y2="404.4932">
			<stop  offset="4.102951e-03" style="stop-color:#000000;stop-opacity:0"/>
			<stop  offset="3.953034e-02" style="stop-color:#000000;stop-opacity:7.144105e-02"/>
			<stop  offset="0.5" style="stop-color:#000000"/>
			<stop  offset="1" style="stop-color:#000000;stop-opacity:0"/>
		</linearGradient>
		<path style="fill:url(#SVGID_00000073714491332213117710000008208847790631639698_);" d="M255,384.2c10,10.9,20.2,21.7,30.5,32.4
			l-8.7,8.2c-10.1-11-20.1-22-30-33.3L255,384.2z"/>
		
			<linearGradient id="SVGID_00000093879767866430679420000007305222722216505474_" gradientUnits="userSpaceOnUse" x1="72.5744" y1="457.0825" x2="1177.5677" y2="457.0825">
			<stop  offset="4.102951e-03" style="stop-color:#000000;stop-opacity:0"/>
			<stop  offset="3.953034e-02" style="stop-color:#000000;stop-opacity:7.144105e-02"/>
			<stop  offset="0.5" style="stop-color:#000000"/>
			<stop  offset="1" style="stop-color:#000000;stop-opacity:0"/>
		</linearGradient>
		<polygon style="fill:url(#SVGID_00000093879767866430679420000007305222722216505474_);" points="304.9,436.5 336.2,468.3 
			326.5,477.7 295.8,445.2 		"/>
		
			<linearGradient id="SVGID_00000173137481741228445450000007011890881328529823_" gradientUnits="userSpaceOnUse" x1="72.5744" y1="509.2411" x2="1177.5677" y2="509.2411">
			<stop  offset="4.102951e-03" style="stop-color:#000000;stop-opacity:0"/>
			<stop  offset="3.953034e-02" style="stop-color:#000000;stop-opacity:7.144105e-02"/>
			<stop  offset="0.5" style="stop-color:#000000"/>
			<stop  offset="1" style="stop-color:#000000;stop-opacity:0"/>
		</linearGradient>
		<path style="fill:url(#SVGID_00000173137481741228445450000007011890881328529823_);" d="M355.7,488.1
			c10.4,10.7,20.6,21.6,30.7,32.7l-10.4,9.6c-10.1-10.9-20.3-21.7-30.5-32.5L355.7,488.1z"/>
		
			<linearGradient id="SVGID_00000079467275169320539190000001517322319235796914_" gradientUnits="userSpaceOnUse" x1="72.5744" y1="563.2056" x2="1177.5677" y2="563.2056">
			<stop  offset="4.102951e-03" style="stop-color:#000000;stop-opacity:0"/>
			<stop  offset="3.953034e-02" style="stop-color:#000000;stop-opacity:7.144105e-02"/>
			<stop  offset="0.5" style="stop-color:#000000"/>
			<stop  offset="1" style="stop-color:#000000;stop-opacity:0"/>
		</linearGradient>
		<path style="fill:url(#SVGID_00000079467275169320539190000001517322319235796914_);" d="M405,541.6c9.9,11.3,19.5,22.8,28.9,34.5
			l-10.9,8.6c-9.2-11.6-18.7-22.9-28.5-33.9L405,541.6z"/>
		
			<linearGradient id="SVGID_00000035495473657917176350000013307784585614999481_" gradientUnits="userSpaceOnUse" x1="72.5744" y1="620.9659" x2="1177.5677" y2="620.9659">
			<stop  offset="4.102951e-03" style="stop-color:#000000;stop-opacity:0"/>
			<stop  offset="3.953034e-02" style="stop-color:#000000;stop-opacity:7.144105e-02"/>
			<stop  offset="0.5" style="stop-color:#000000"/>
			<stop  offset="1" style="stop-color:#000000;stop-opacity:0"/>
		</linearGradient>
		<path style="fill:url(#SVGID_00000035495473657917176350000013307784585614999481_);" d="M450.9,598.5c8.8,12.2,17.2,24.8,25,37.8
			l-11.9,7.1c-7.5-12.6-15.6-24.8-24.3-36.7L450.9,598.5z"/>
		
			<linearGradient id="SVGID_00000152971131921525700970000000669335612463840955_" gradientUnits="userSpaceOnUse" x1="72.5744" y1="684.3425" x2="1177.5677" y2="684.3425">
			<stop  offset="4.102951e-03" style="stop-color:#000000;stop-opacity:0"/>
			<stop  offset="3.953034e-02" style="stop-color:#000000;stop-opacity:7.144105e-02"/>
			<stop  offset="0.5" style="stop-color:#000000"/>
			<stop  offset="1" style="stop-color:#000000;stop-opacity:0"/>
		</linearGradient>
		<path style="fill:url(#SVGID_00000152971131921525700970000000669335612463840955_);" d="M489.5,661.1c6.8,13.6,12.8,27.6,17.7,42
			l-13.2,4.5c-4.7-13.8-10.4-27.2-17-40.2L489.5,661.1z"/>
		
			<linearGradient id="SVGID_00000042722844804654486150000004160537006529203862_" gradientUnits="userSpaceOnUse" x1="72.5744" y1="753.5309" x2="1177.5677" y2="753.5309">
			<stop  offset="4.102951e-03" style="stop-color:#000000;stop-opacity:0"/>
			<stop  offset="3.953034e-02" style="stop-color:#000000;stop-opacity:7.144105e-02"/>
			<stop  offset="0.5" style="stop-color:#000000"/>
			<stop  offset="1" style="stop-color:#000000;stop-opacity:0"/>
		</linearGradient>
		<path style="fill:url(#SVGID_00000042722844804654486150000004160537006529203862_);" d="M515.1,730.4c3.5,14.8,5.8,30,6.9,45.2
			l-13.9,1c-1-14.5-3.2-28.9-6.6-43L515.1,730.4z"/>
		
			<linearGradient id="SVGID_00000128453274397451537100000015974589394027733891_" gradientUnits="userSpaceOnUse" x1="72.5744" y1="826.6207" x2="1177.5677" y2="826.6207">
			<stop  offset="4.102951e-03" style="stop-color:#000000;stop-opacity:0"/>
			<stop  offset="3.953034e-02" style="stop-color:#000000;stop-opacity:7.144105e-02"/>
			<stop  offset="0.5" style="stop-color:#000000"/>
			<stop  offset="1" style="stop-color:#000000;stop-opacity:0"/>
		</linearGradient>
		<path style="fill:url(#SVGID_00000128453274397451537100000015974589394027733891_);" d="M522.6,804.1
			c-0.5,15.2-2.1,30.4-4.8,45.4l-13.7-2.4c2.5-14.4,4.1-28.9,4.5-43.4L522.6,804.1z"/>
		
			<linearGradient id="SVGID_00000155147632583539232440000016083170779897443214_" gradientUnits="userSpaceOnUse" x1="72.5744" y1="897.0081" x2="1177.5677" y2="897.0081">
			<stop  offset="4.102951e-03" style="stop-color:#000000;stop-opacity:0"/>
			<stop  offset="3.953034e-02" style="stop-color:#000000;stop-opacity:7.144105e-02"/>
			<stop  offset="0.5" style="stop-color:#000000"/>
			<stop  offset="1" style="stop-color:#000000;stop-opacity:0"/>
		</linearGradient>
		<path style="fill:url(#SVGID_00000155147632583539232440000016083170779897443214_);" d="M511.7,877.2c-1.9,7.3-4.1,14.6-6.4,21.8
			c-1.2,3.6-2.4,7.2-3.6,10.8l-1.9,5.3l-1.9,5.2l-13.1-4.7l1.9-5.3l1.9-5.2c1.2-3.5,2.4-6.9,3.5-10.4c2.3-7,4.3-14,6.2-21
			L511.7,877.2z"/>
		
			<linearGradient id="SVGID_00000174583981192144698210000003033900724952456637_" gradientUnits="userSpaceOnUse" x1="72.5744" y1="965.4141" x2="1177.5677" y2="965.4141">
			<stop  offset="4.102951e-03" style="stop-color:#000000;stop-opacity:0"/>
			<stop  offset="3.953034e-02" style="stop-color:#000000;stop-opacity:7.144105e-02"/>
			<stop  offset="0.5" style="stop-color:#000000"/>
			<stop  offset="1" style="stop-color:#000000;stop-opacity:0"/>
		</linearGradient>
		<path style="fill:url(#SVGID_00000174583981192144698210000003033900724952456637_);" d="M488.8,946.4c-4.6,14-8.9,28.2-12.8,42.4
			l-13.4-3.6c3.9-14.5,8.3-28.9,13-43.1L488.8,946.4z"/>
		
			<linearGradient id="SVGID_00000029010080434168393870000003064660488228691102_" gradientUnits="userSpaceOnUse" x1="72.5744" y1="1035.6189" x2="1177.5677" y2="1035.6189">
			<stop  offset="4.102951e-03" style="stop-color:#000000;stop-opacity:0"/>
			<stop  offset="3.953034e-02" style="stop-color:#000000;stop-opacity:7.144105e-02"/>
			<stop  offset="0.5" style="stop-color:#000000"/>
			<stop  offset="1" style="stop-color:#000000;stop-opacity:0"/>
		</linearGradient>
		<path style="fill:url(#SVGID_00000029010080434168393870000003064660488228691102_);" d="M469.4,1015.5
			c-3.3,14.4-6.1,28.8-8.4,43.4l-13.7-2.1c2.3-14.9,5.2-29.7,8.5-44.3L469.4,1015.5z"/>
		
			<linearGradient id="SVGID_00000157987876793564947780000003869960784716830618_" gradientUnits="userSpaceOnUse" x1="72.5744" y1="1107.3319" x2="1177.5677" y2="1107.3319">
			<stop  offset="4.102951e-03" style="stop-color:#000000;stop-opacity:0"/>
			<stop  offset="3.953034e-02" style="stop-color:#000000;stop-opacity:7.144105e-02"/>
			<stop  offset="0.5" style="stop-color:#000000"/>
			<stop  offset="1" style="stop-color:#000000;stop-opacity:0"/>
		</linearGradient>
		<path style="fill:url(#SVGID_00000157987876793564947780000003869960784716830618_);" d="M457.5,1086.1
			c-1.5,14.6-2.3,29.3-2.5,43.9l-13.9-0.1c0.1-15.1,1-30.2,2.6-45.2L457.5,1086.1z"/>
		
			<linearGradient id="SVGID_00000097467535942789619200000002374371277538152606_" gradientUnits="userSpaceOnUse" x1="72.5744" y1="1180.2932" x2="1177.5677" y2="1180.2932">
			<stop  offset="4.102951e-03" style="stop-color:#000000;stop-opacity:0"/>
			<stop  offset="3.953034e-02" style="stop-color:#000000;stop-opacity:7.144105e-02"/>
			<stop  offset="0.5" style="stop-color:#000000"/>
			<stop  offset="1" style="stop-color:#000000;stop-opacity:0"/>
		</linearGradient>
		<path style="fill:url(#SVGID_00000097467535942789619200000002374371277538152606_);" d="M455.6,1157.4
			c0.8,14.6,2.3,29.2,4.7,43.7l-13.7,2.2c-2.4-14.9-4-30-4.8-45.1L455.6,1157.4z"/>
		
			<linearGradient id="SVGID_00000065065164748772878240000000487254940987544471_" gradientUnits="userSpaceOnUse" x1="72.5744" y1="1251.2052" x2="1177.5677" y2="1251.2052">
			<stop  offset="4.102951e-03" style="stop-color:#000000;stop-opacity:0"/>
			<stop  offset="3.953034e-02" style="stop-color:#000000;stop-opacity:7.144105e-02"/>
			<stop  offset="0.5" style="stop-color:#000000"/>
			<stop  offset="1" style="stop-color:#000000;stop-opacity:0"/>
		</linearGradient>
		<path style="fill:url(#SVGID_00000065065164748772878240000000487254940987544471_);" d="M465.5,1227.8
			c3.3,14.3,7.3,28.4,12.1,42.2l-13.1,4.5c-4.9-14.3-9.1-28.9-12.5-43.6L465.5,1227.8z"/>
		
			<linearGradient id="SVGID_00000015318496981839299650000003023607521954658186_" gradientUnits="userSpaceOnUse" x1="72.5744" y1="1318.865" x2="1177.5677" y2="1318.865">
			<stop  offset="4.102951e-03" style="stop-color:#000000;stop-opacity:0"/>
			<stop  offset="3.953034e-02" style="stop-color:#000000;stop-opacity:7.144105e-02"/>
			<stop  offset="0.5" style="stop-color:#000000"/>
			<stop  offset="1" style="stop-color:#000000;stop-opacity:0"/>
		</linearGradient>
		<path style="fill:url(#SVGID_00000015318496981839299650000003023607521954658186_);" d="M487.3,1295.7
			c5.6,13.6,11.8,26.9,18.5,40l-12.4,6.3c-6.9-13.4-13.2-27.1-19-41.1L487.3,1295.7z"/>
		
			<linearGradient id="SVGID_00000044871470382745112170000015886937792812494007_" gradientUnits="userSpaceOnUse" x1="72.5744" y1="1382.5103" x2="1177.5677" y2="1382.5103">
			<stop  offset="4.102951e-03" style="stop-color:#000000;stop-opacity:0"/>
			<stop  offset="3.953034e-02" style="stop-color:#000000;stop-opacity:7.144105e-02"/>
			<stop  offset="0.5" style="stop-color:#000000"/>
			<stop  offset="1" style="stop-color:#000000;stop-opacity:0"/>
		</linearGradient>
		<path style="fill:url(#SVGID_00000044871470382745112170000015886937792812494007_);" d="M518.9,1359.9
			c7.3,12.8,15.1,25.4,23.1,37.7l-11.6,7.6c-8.2-12.6-16.1-25.4-23.6-38.4L518.9,1359.9z"/>
		
			<linearGradient id="SVGID_00000168074884256014100190000013600374373368117433_" gradientUnits="userSpaceOnUse" x1="72.5744" y1="1442.5459" x2="1177.5677" y2="1442.5459">
			<stop  offset="4.102951e-03" style="stop-color:#000000;stop-opacity:0"/>
			<stop  offset="3.953034e-02" style="stop-color:#000000;stop-opacity:7.144105e-02"/>
			<stop  offset="0.5" style="stop-color:#000000"/>
			<stop  offset="1" style="stop-color:#000000;stop-opacity:0"/>
		</linearGradient>
		<path style="fill:url(#SVGID_00000168074884256014100190000013600374373368117433_);" d="M557.5,1420.4
			c8.5,12.1,17.2,24.1,26.2,35.9l-11.1,8.4c-9-11.9-17.9-24-26.5-36.3L557.5,1420.4z"/>
		
			<linearGradient id="SVGID_00000085245270119013890350000006853871221519890570_" gradientUnits="userSpaceOnUse" x1="72.5744" y1="1499.9009" x2="1177.5677" y2="1499.9009">
			<stop  offset="4.102951e-03" style="stop-color:#000000;stop-opacity:0"/>
			<stop  offset="3.953034e-02" style="stop-color:#000000;stop-opacity:7.144105e-02"/>
			<stop  offset="0.5" style="stop-color:#000000"/>
			<stop  offset="1" style="stop-color:#000000;stop-opacity:0"/>
		</linearGradient>
		<path style="fill:url(#SVGID_00000085245270119013890350000006853871221519890570_);" d="M600.5,1478.2
			c4.6,5.8,9.2,11.6,13.9,17.4l14.1,17.3l-10.8,8.7l-14.1-17.3c-4.7-5.8-9.4-11.7-14-17.5L600.5,1478.2z"/>
		
			<linearGradient id="SVGID_00000123407752443371449770000010331348997963779761_" gradientUnits="userSpaceOnUse" x1="72.5744" y1="1557.3237" x2="1177.5677" y2="1557.3237">
			<stop  offset="4.102951e-03" style="stop-color:#000000;stop-opacity:0"/>
			<stop  offset="3.953034e-02" style="stop-color:#000000;stop-opacity:7.144105e-02"/>
			<stop  offset="0.5" style="stop-color:#000000"/>
			<stop  offset="1" style="stop-color:#000000;stop-opacity:0"/>
		</linearGradient>
		<path style="fill:url(#SVGID_00000123407752443371449770000010331348997963779761_);" d="M645.7,1535c9,12.1,17.6,24.4,25.8,37
			l-11.7,7.6c-8-12.4-16.5-24.5-25.3-36.3L645.7,1535z"/>
		
			<linearGradient id="SVGID_00000116236567809243710810000016208899228010501770_" gradientUnits="userSpaceOnUse" x1="72.5744" y1="1618.8293" x2="1177.5677" y2="1618.8293">
			<stop  offset="4.102951e-03" style="stop-color:#000000;stop-opacity:0"/>
			<stop  offset="3.953034e-02" style="stop-color:#000000;stop-opacity:7.144105e-02"/>
			<stop  offset="0.5" style="stop-color:#000000"/>
			<stop  offset="1" style="stop-color:#000000;stop-opacity:0"/>
		</linearGradient>
		<path style="fill:url(#SVGID_00000116236567809243710810000016208899228010501770_);" d="M686.3,1595.9
			c7.7,12.9,14.9,26.1,21.7,39.6l-12.4,6.3c-6.6-13.2-13.7-26.1-21.2-38.8L686.3,1595.9z"/>
		
			<linearGradient id="SVGID_00000156587213298527043990000013632183680028197052_" gradientUnits="userSpaceOnUse" x1="72.5744" y1="1684.1162" x2="1177.5677" y2="1684.1162">
			<stop  offset="4.102951e-03" style="stop-color:#000000;stop-opacity:0"/>
			<stop  offset="3.953034e-02" style="stop-color:#000000;stop-opacity:7.144105e-02"/>
			<stop  offset="0.5" style="stop-color:#000000"/>
			<stop  offset="1" style="stop-color:#000000;stop-opacity:0"/>
		</linearGradient>
		<path style="fill:url(#SVGID_00000156587213298527043990000013632183680028197052_);" d="M720.1,1660.8
			c6.2,13.7,11.9,27.6,17.2,41.7l-13,4.9c-5.1-13.8-10.8-27.4-16.8-40.9L720.1,1660.8z"/>
		
			<linearGradient id="SVGID_00000133505707973509935590000014015437329683447188_" gradientUnits="userSpaceOnUse" x1="72.5744" y1="1752.4553" x2="1177.5677" y2="1752.4553">
			<stop  offset="4.102951e-03" style="stop-color:#000000;stop-opacity:0"/>
			<stop  offset="3.953034e-02" style="stop-color:#000000;stop-opacity:7.144105e-02"/>
			<stop  offset="0.5" style="stop-color:#000000"/>
			<stop  offset="1" style="stop-color:#000000;stop-opacity:0"/>
		</linearGradient>
		<path style="fill:url(#SVGID_00000133505707973509935590000014015437329683447188_);" d="M746.6,1729.1
			c4.7,14.3,8.8,28.8,12.5,43.4l-13.5,3.4c-3.6-14.3-7.7-28.5-12.2-42.5L746.6,1729.1z"/>
		
			<linearGradient id="SVGID_00000039848752214316448290000016283839722242633860_" gradientUnits="userSpaceOnUse" x1="72.5744" y1="1823.009" x2="1177.5677" y2="1823.009">
			<stop  offset="4.102951e-03" style="stop-color:#000000;stop-opacity:0"/>
			<stop  offset="3.953034e-02" style="stop-color:#000000;stop-opacity:7.144105e-02"/>
			<stop  offset="0.5" style="stop-color:#000000"/>
			<stop  offset="1" style="stop-color:#000000;stop-opacity:0"/>
		</linearGradient>
		<path style="fill:url(#SVGID_00000039848752214316448290000016283839722242633860_);" d="M765.4,1799.8
			c3.1,14.7,5.6,29.6,7.7,44.5l-13.8,1.9c-2-14.6-4.5-29.1-7.5-43.6L765.4,1799.8z"/>
		
			<linearGradient id="SVGID_00000059992202891162233410000017404029271859810222_" gradientUnits="userSpaceOnUse" x1="72.5744" y1="1894.9033" x2="1177.5677" y2="1894.9033">
			<stop  offset="4.102951e-03" style="stop-color:#000000;stop-opacity:0"/>
			<stop  offset="3.953034e-02" style="stop-color:#000000;stop-opacity:7.144105e-02"/>
			<stop  offset="0.5" style="stop-color:#000000"/>
			<stop  offset="1" style="stop-color:#000000;stop-opacity:0"/>
		</linearGradient>
		<path style="fill:url(#SVGID_00000059992202891162233410000017404029271859810222_);" d="M776.3,1872.2c1.5,15,2.5,30,3,45
			l-13.9,0.5c-0.5-14.7-1.5-29.5-2.9-44.1L776.3,1872.2z"/>
		
			<linearGradient id="SVGID_00000163756608491857615140000006065676469809575605_" gradientUnits="userSpaceOnUse" x1="72.5744" y1="1967.7172" x2="1177.5677" y2="1967.7172">
			<stop  offset="4.102951e-03" style="stop-color:#000000;stop-opacity:0"/>
			<stop  offset="3.953034e-02" style="stop-color:#000000;stop-opacity:7.144105e-02"/>
			<stop  offset="0.5" style="stop-color:#000000"/>
			<stop  offset="1" style="stop-color:#000000;stop-opacity:0"/>
		</linearGradient>
		<path style="fill:url(#SVGID_00000163756608491857615140000006065676469809575605_);" d="M779.8,1945.2c0,15-0.5,30.1-1.5,45
			l-13.9-0.9c0.9-14.7,1.4-29.5,1.4-44.2L779.8,1945.2z"/>
		
			<linearGradient id="SVGID_00000070801422250811146250000012948088974222111638_" gradientUnits="userSpaceOnUse" x1="72.5744" y1="2040.1523" x2="1177.5677" y2="2040.1523">
			<stop  offset="4.102951e-03" style="stop-color:#000000;stop-opacity:0"/>
			<stop  offset="3.953034e-02" style="stop-color:#000000;stop-opacity:7.144105e-02"/>
			<stop  offset="0.5" style="stop-color:#000000"/>
			<stop  offset="1" style="stop-color:#000000;stop-opacity:0"/>
		</linearGradient>
		<path style="fill:url(#SVGID_00000070801422250811146250000012948088974222111638_);" d="M776.1,2018.2l-0.6,5.6l-0.1,1.4
			l-0.2,1.5c-0.1,1-0.3,2-0.4,2.9c-0.6,3.9-1.3,7.8-2.2,11.6c-1.8,7.6-4.3,15-7.2,22.2l-12.9-5.2c2.7-6.6,4.9-13.4,6.5-20.2
			c0.8-3.4,1.5-6.9,2-10.3c0.1-0.9,0.2-1.7,0.3-2.6l0.2-1.3l0.1-1.4l0.6-5.5L776.1,2018.2z"/>
		
			<linearGradient id="SVGID_00000067232916168979481250000005520373381835899062_" gradientUnits="userSpaceOnUse" x1="72.5744" y1="2104.7197" x2="1177.5677" y2="2104.7197">
			<stop  offset="4.102951e-03" style="stop-color:#000000;stop-opacity:0"/>
			<stop  offset="3.953034e-02" style="stop-color:#000000;stop-opacity:7.144105e-02"/>
			<stop  offset="0.5" style="stop-color:#000000"/>
			<stop  offset="1" style="stop-color:#000000;stop-opacity:0"/>
		</linearGradient>
		<path style="fill:url(#SVGID_00000067232916168979481250000005520373381835899062_);" d="M752.8,2089.2
			c-7.6,13.3-16.2,25.8-25.4,37.9l-11.1-8.4c8.9-11.7,17.2-23.7,24.3-36.3L752.8,2089.2z"/>
		
			<linearGradient id="SVGID_00000047776637103092685150000000906730655404980358_" gradientUnits="userSpaceOnUse" x1="72.5744" y1="2161.3171" x2="1177.5677" y2="2161.3171">
			<stop  offset="4.102951e-03" style="stop-color:#000000;stop-opacity:0"/>
			<stop  offset="3.953034e-02" style="stop-color:#000000;stop-opacity:7.144105e-02"/>
			<stop  offset="0.5" style="stop-color:#000000"/>
			<stop  offset="1" style="stop-color:#000000;stop-opacity:0"/>
		</linearGradient>
		<path style="fill:url(#SVGID_00000047776637103092685150000000906730655404980358_);" d="M709.8,2149c-9.7,11.5-19.8,22.6-30,33.6
			l-10.1-9.5c10.1-10.8,20-21.8,29.5-33L709.8,2149z"/>
		
			<linearGradient id="SVGID_00000155844839386731726320000017645806081544314503_" gradientUnits="userSpaceOnUse" x1="72.5744" y1="2213.7871" x2="1177.5677" y2="2213.7871">
			<stop  offset="4.102951e-03" style="stop-color:#000000;stop-opacity:0"/>
			<stop  offset="3.953034e-02" style="stop-color:#000000;stop-opacity:7.144105e-02"/>
			<stop  offset="0.5" style="stop-color:#000000"/>
			<stop  offset="1" style="stop-color:#000000;stop-opacity:0"/>
		</linearGradient>
		<path style="fill:url(#SVGID_00000155844839386731726320000017645806081544314503_);" d="M660.5,2202.8
			c-10.4,10.7-21,21.3-31.6,31.8l-9.8-9.9c10.6-10.5,21.1-21,31.4-31.6L660.5,2202.8z"/>
		
			<linearGradient id="SVGID_00000114754426486405902670000018198712316143606181_" gradientUnits="userSpaceOnUse" x1="72.5744" y1="2264.7856" x2="1177.5677" y2="2264.7856">
			<stop  offset="4.102951e-03" style="stop-color:#000000;stop-opacity:0"/>
			<stop  offset="3.953034e-02" style="stop-color:#000000;stop-opacity:7.144105e-02"/>
			<stop  offset="0.5" style="stop-color:#000000"/>
			<stop  offset="1" style="stop-color:#000000;stop-opacity:0"/>
		</linearGradient>
		<polygon style="fill:url(#SVGID_00000114754426486405902670000018198712316143606181_);" points="609.1,2254.1 577.3,2285.4 
			567.6,2275.5 599.4,2244.2 		"/>
		
			<linearGradient id="SVGID_00000127044634923833702300000010497541180948168891_" gradientUnits="userSpaceOnUse" x1="72.5744" y1="2316.0298" x2="1177.5677" y2="2316.0298">
			<stop  offset="4.102951e-03" style="stop-color:#000000;stop-opacity:0"/>
			<stop  offset="3.953034e-02" style="stop-color:#000000;stop-opacity:7.144105e-02"/>
			<stop  offset="0.5" style="stop-color:#000000"/>
			<stop  offset="1" style="stop-color:#000000;stop-opacity:0"/>
		</linearGradient>
		<path style="fill:url(#SVGID_00000127044634923833702300000010497541180948168891_);" d="M557.7,2305
			c-10.5,10.5-20.9,21.1-31.1,31.8l-10-9.6c10.3-10.8,20.8-21.5,31.3-32L557.7,2305z"/>
		
			<linearGradient id="SVGID_00000172420704542267502710000013571082804098881680_" gradientUnits="userSpaceOnUse" x1="72.5744" y1="2368.8" x2="1177.5677" y2="2368.8">
			<stop  offset="4.102951e-03" style="stop-color:#000000;stop-opacity:0"/>
			<stop  offset="3.953034e-02" style="stop-color:#000000;stop-opacity:7.144105e-02"/>
			<stop  offset="0.5" style="stop-color:#000000"/>
			<stop  offset="1" style="stop-color:#000000;stop-opacity:0"/>
		</linearGradient>
		<path style="fill:url(#SVGID_00000172420704542267502710000013571082804098881680_);" d="M507.6,2357
			c-10.1,10.9-20,21.9-29.7,33.1l-10.5-9.1c9.8-11.3,19.8-22.4,30-33.4L507.6,2357z"/>
		
			<linearGradient id="SVGID_00000131351256470567257070000007859929732995133887_" gradientUnits="userSpaceOnUse" x1="72.5744" y1="2424.1824" x2="1177.5677" y2="2424.1824">
			<stop  offset="4.102951e-03" style="stop-color:#000000;stop-opacity:0"/>
			<stop  offset="3.953034e-02" style="stop-color:#000000;stop-opacity:7.144105e-02"/>
			<stop  offset="0.5" style="stop-color:#000000"/>
			<stop  offset="1" style="stop-color:#000000;stop-opacity:0"/>
		</linearGradient>
		<path style="fill:url(#SVGID_00000131351256470567257070000007859929732995133887_);" d="M460.1,2411.1
			c-9.4,11.4-18.5,23-27.3,34.9l-11.2-8.3c9-12.1,18.2-23.9,27.8-35.4L460.1,2411.1z"/>
		
			<linearGradient id="SVGID_00000000925898870976031280000003914572630249451689_" gradientUnits="userSpaceOnUse" x1="72.5744" y1="2483.1274" x2="1177.5677" y2="2483.1274">
			<stop  offset="4.102951e-03" style="stop-color:#000000;stop-opacity:0"/>
			<stop  offset="3.953034e-02" style="stop-color:#000000;stop-opacity:7.144105e-02"/>
			<stop  offset="0.5" style="stop-color:#000000"/>
			<stop  offset="1" style="stop-color:#000000;stop-opacity:0"/>
		</linearGradient>
		<path style="fill:url(#SVGID_00000000925898870976031280000003914572630249451689_);" d="M416.7,2468.4
			c-8.3,12.2-16.3,24.6-23.8,37.2l-12-7.1c7.7-13,15.8-25.6,24.3-38L416.7,2468.4z"/>
		
			<linearGradient id="SVGID_00000124851382488920248390000009170607295625440683_" gradientUnits="userSpaceOnUse" x1="72.5744" y1="2546.3311" x2="1177.5677" y2="2546.3311">
			<stop  offset="4.102951e-03" style="stop-color:#000000;stop-opacity:0"/>
			<stop  offset="3.953034e-02" style="stop-color:#000000;stop-opacity:7.144105e-02"/>
			<stop  offset="0.5" style="stop-color:#000000"/>
			<stop  offset="1" style="stop-color:#000000;stop-opacity:0"/>
		</linearGradient>
		<path style="fill:url(#SVGID_00000124851382488920248390000009170607295625440683_);" d="M379.6,2529.6
			c-6.8,13-13.1,26.3-18.8,39.8l-12.8-5.3c5.8-14,12.3-27.6,19.3-41L379.6,2529.6z"/>
		
			<linearGradient id="SVGID_00000158744388262882346610000016372537268609622403_" gradientUnits="userSpaceOnUse" x1="72.5744" y1="2613.8992" x2="1177.5677" y2="2613.8992">
			<stop  offset="4.102951e-03" style="stop-color:#000000;stop-opacity:0"/>
			<stop  offset="3.953034e-02" style="stop-color:#000000;stop-opacity:7.144105e-02"/>
			<stop  offset="0.5" style="stop-color:#000000"/>
			<stop  offset="1" style="stop-color:#000000;stop-opacity:0"/>
		</linearGradient>
		<path style="fill:url(#SVGID_00000158744388262882346610000016372537268609622403_);" d="M351.1,2595.1
			c-4.8,13.9-8.8,27.9-12,42.2l-13.6-3.1c3.3-14.8,7.5-29.4,12.4-43.7L351.1,2595.1z"/>
		
			<linearGradient id="SVGID_00000042010754601380950740000008914768114018297731_" gradientUnits="userSpaceOnUse" x1="72.5744" y1="2684.8696" x2="1177.5677" y2="2684.8696">
			<stop  offset="4.102951e-03" style="stop-color:#000000;stop-opacity:0"/>
			<stop  offset="3.953034e-02" style="stop-color:#000000;stop-opacity:7.144105e-02"/>
			<stop  offset="0.5" style="stop-color:#000000"/>
			<stop  offset="1" style="stop-color:#000000;stop-opacity:0"/>
		</linearGradient>
		<path style="fill:url(#SVGID_00000042010754601380950740000008914768114018297731_);" d="M334.1,2664.1c-2.2,14.5-3.5,29-3.9,43.6
			l-13.9-0.4c0.4-15.2,1.8-30.3,4-45.3L334.1,2664.1z"/>
		
			<linearGradient id="SVGID_00000052821042656929213970000011253671737717461932_" gradientUnits="userSpaceOnUse" x1="72.5744" y1="2757.9546" x2="1177.5677" y2="2757.9546">
			<stop  offset="4.102951e-03" style="stop-color:#000000;stop-opacity:0"/>
			<stop  offset="3.953034e-02" style="stop-color:#000000;stop-opacity:7.144105e-02"/>
			<stop  offset="0.5" style="stop-color:#000000"/>
			<stop  offset="1" style="stop-color:#000000;stop-opacity:0"/>
		</linearGradient>
		<path style="fill:url(#SVGID_00000052821042656929213970000011253671737717461932_);" d="M330.5,2734.9c0.8,14.5,2.7,29,5.8,43.2
			l-13.6,2.9c-3.2-14.9-5.2-30.1-6.1-45.3L330.5,2734.9z"/>
		
			<linearGradient id="SVGID_00000102508909420913304960000002070339881630586496_" gradientUnits="userSpaceOnUse" x1="72.5744" y1="2827.4656" x2="1177.5677" y2="2827.4656">
			<stop  offset="4.102951e-03" style="stop-color:#000000;stop-opacity:0"/>
			<stop  offset="3.953034e-02" style="stop-color:#000000;stop-opacity:7.144105e-02"/>
			<stop  offset="0.5" style="stop-color:#000000"/>
			<stop  offset="1" style="stop-color:#000000;stop-opacity:0"/>
		</linearGradient>
		<path style="fill:url(#SVGID_00000102508909420913304960000002070339881630586496_);" d="M343.4,2804.2
			c4.5,13.8,10.1,27.2,16.8,40.1l-12.3,6.4c-7-13.6-12.9-27.7-17.7-42.2L343.4,2804.2z"/>
		
			<linearGradient id="SVGID_00000173839735787817773210000004317256804375519389_" gradientUnits="userSpaceOnUse" x1="72.5744" y1="2889.8662" x2="1177.5677" y2="2889.8662">
			<stop  offset="4.102951e-03" style="stop-color:#000000;stop-opacity:0"/>
			<stop  offset="3.953034e-02" style="stop-color:#000000;stop-opacity:7.144105e-02"/>
			<stop  offset="0.5" style="stop-color:#000000"/>
			<stop  offset="1" style="stop-color:#000000;stop-opacity:0"/>
		</linearGradient>
		<path style="fill:url(#SVGID_00000173839735787817773210000004317256804375519389_);" d="M373.7,2867.8
			c7.9,12.3,16.6,24,26.1,35.1l-10.6,9c-9.8-11.6-18.9-23.8-27.1-36.6L373.7,2867.8z"/>
		
			<linearGradient id="SVGID_00000092417883131029658510000001318487972521725057_" gradientUnits="userSpaceOnUse" x1="72.5744" y1="2943.5073" x2="1177.5677" y2="2943.5073">
			<stop  offset="4.102951e-03" style="stop-color:#000000;stop-opacity:0"/>
			<stop  offset="3.953034e-02" style="stop-color:#000000;stop-opacity:7.144105e-02"/>
			<stop  offset="0.5" style="stop-color:#000000"/>
			<stop  offset="1" style="stop-color:#000000;stop-opacity:0"/>
		</linearGradient>
		<path style="fill:url(#SVGID_00000092417883131029658510000001318487972521725057_);" d="M418.2,2923.2
			c10.2,10.5,21,20.5,32.1,30.2l-9.1,10.5c-11.4-9.9-22.4-20.2-33-31L418.2,2923.2z"/>
		
			<linearGradient id="SVGID_00000074413424995415498410000002925956221938383782_" gradientUnits="userSpaceOnUse" x1="72.5744" y1="2989.9604" x2="1177.5677" y2="2989.9604">
			<stop  offset="4.102951e-03" style="stop-color:#000000;stop-opacity:0"/>
			<stop  offset="3.953034e-02" style="stop-color:#000000;stop-opacity:7.144105e-02"/>
			<stop  offset="0.5" style="stop-color:#000000"/>
			<stop  offset="1" style="stop-color:#000000;stop-opacity:0"/>
		</linearGradient>
		<path style="fill:url(#SVGID_00000074413424995415498410000002925956221938383782_);" d="M471.6,2971c11.6,9.2,23.4,18,35.5,26.6
			l-8.1,11.3c-12.2-8.7-24.2-17.7-36-27L471.6,2971z"/>
		
			<linearGradient id="SVGID_00000160883439895183535020000007899585656394198698_" gradientUnits="userSpaceOnUse" x1="72.5744" y1="3031.5266" x2="1177.5677" y2="3031.5266">
			<stop  offset="4.102951e-03" style="stop-color:#000000;stop-opacity:0"/>
			<stop  offset="3.953034e-02" style="stop-color:#000000;stop-opacity:7.144105e-02"/>
			<stop  offset="0.5" style="stop-color:#000000"/>
			<stop  offset="1" style="stop-color:#000000;stop-opacity:0"/>
		</linearGradient>
		<path style="fill:url(#SVGID_00000160883439895183535020000007899585656394198698_);" d="M529.8,3013.4
			c12.3,8.3,24.6,16.5,37.1,24.6l-7.6,11.7c-12.5-8.1-25-16.4-37.3-24.8L529.8,3013.4z"/>
		
			<linearGradient id="SVGID_00000182495444384086692640000002766255351318025353_" gradientUnits="userSpaceOnUse" x1="72.5744" y1="3070.9976" x2="1177.5677" y2="3070.9976">
			<stop  offset="4.102951e-03" style="stop-color:#000000;stop-opacity:0"/>
			<stop  offset="3.953034e-02" style="stop-color:#000000;stop-opacity:7.144105e-02"/>
			<stop  offset="0.5" style="stop-color:#000000"/>
			<stop  offset="1" style="stop-color:#000000;stop-opacity:0"/>
		</linearGradient>
		<polygon style="fill:url(#SVGID_00000182495444384086692640000002766255351318025353_);" points="590.2,3053.1 627.8,3077.3 
			620.2,3088.9 582.7,3064.8 		"/>
		
			<linearGradient id="SVGID_00000156556147066810899540000010143290193555782292_" gradientUnits="userSpaceOnUse" x1="72.5744" y1="3110.9133" x2="1177.5677" y2="3110.9133">
			<stop  offset="4.102951e-03" style="stop-color:#000000;stop-opacity:0"/>
			<stop  offset="3.953034e-02" style="stop-color:#000000;stop-opacity:7.144105e-02"/>
			<stop  offset="0.5" style="stop-color:#000000"/>
			<stop  offset="1" style="stop-color:#000000;stop-opacity:0"/>
		</linearGradient>
		<path style="fill:url(#SVGID_00000156556147066810899540000010143290193555782292_);" d="M651.1,3092.6
			c12.4,8.3,24.8,16.7,37,25.4l-8.1,11.3c-12.1-8.6-24.3-16.9-36.7-25.1L651.1,3092.6z"/>
		
			<linearGradient id="SVGID_00000103225643607885155530000002448690950182719147_" gradientUnits="userSpaceOnUse" x1="72.5744" y1="3153.9478" x2="1177.5677" y2="3153.9478">
			<stop  offset="4.102951e-03" style="stop-color:#000000;stop-opacity:0"/>
			<stop  offset="3.953034e-02" style="stop-color:#000000;stop-opacity:7.144105e-02"/>
			<stop  offset="0.5" style="stop-color:#000000"/>
			<stop  offset="1" style="stop-color:#000000;stop-opacity:0"/>
		</linearGradient>
		<path style="fill:url(#SVGID_00000103225643607885155530000002448690950182719147_);" d="M710.7,3134.5
			c12,9.1,23.7,18.5,35.1,28.4l-9.1,10.5c-11.1-9.7-22.6-18.9-34.4-27.8L710.7,3134.5z"/>
		
			<linearGradient id="SVGID_00000152226661134385633110000011192262188933473948_" gradientUnits="userSpaceOnUse" x1="72.5744" y1="3203.0762" x2="1177.5677" y2="3203.0762">
			<stop  offset="4.102951e-03" style="stop-color:#000000;stop-opacity:0"/>
			<stop  offset="3.953034e-02" style="stop-color:#000000;stop-opacity:7.144105e-02"/>
			<stop  offset="0.5" style="stop-color:#000000"/>
			<stop  offset="1" style="stop-color:#000000;stop-opacity:0"/>
		</linearGradient>
		<path style="fill:url(#SVGID_00000152226661134385633110000011192262188933473948_);" d="M766.5,3182
			c10.8,10.5,21.2,21.7,30.8,33.4l-10.8,8.8c-9.2-11.3-19.2-22-29.7-32.3L766.5,3182z"/>
		
			<linearGradient id="SVGID_00000173880836386552222790000003269633683801046948_" gradientUnits="userSpaceOnUse" x1="72.5744" y1="3261.0273" x2="1177.5677" y2="3261.0273">
			<stop  offset="4.102951e-03" style="stop-color:#000000;stop-opacity:0"/>
			<stop  offset="3.953034e-02" style="stop-color:#000000;stop-opacity:7.144105e-02"/>
			<stop  offset="0.5" style="stop-color:#000000"/>
			<stop  offset="1" style="stop-color:#000000;stop-opacity:0"/>
		</linearGradient>
		<path style="fill:url(#SVGID_00000173880836386552222790000003269633683801046948_);" d="M814.2,3238.2
			c8.5,12.6,16.1,26,22.4,39.9l-12.7,5.7c-6-13.2-13.2-25.8-21.3-37.9L814.2,3238.2z"/>
		
			<linearGradient id="SVGID_00000051347988175894153340000007746700322164061591_" gradientUnits="userSpaceOnUse" x1="72.5744" y1="3328.272" x2="1177.5677" y2="3328.272">
			<stop  offset="4.102951e-03" style="stop-color:#000000;stop-opacity:0"/>
			<stop  offset="3.953034e-02" style="stop-color:#000000;stop-opacity:7.144105e-02"/>
			<stop  offset="0.5" style="stop-color:#000000"/>
			<stop  offset="1" style="stop-color:#000000;stop-opacity:0"/>
		</linearGradient>
		<path style="fill:url(#SVGID_00000051347988175894153340000007746700322164061591_);" d="M847,3304.7c2.4,7.3,4.4,14.7,6,22.2
			l4.8,21.8l-13.5,3.1l-4.8-21.9c-1.6-7.1-3.5-14-5.7-20.9L847,3304.7z"/>
		
			<linearGradient id="SVGID_00000005969286061497199970000003177964370966871227_" gradientUnits="userSpaceOnUse" x1="72.5744" y1="3398.9238" x2="1177.5677" y2="3398.9238">
			<stop  offset="4.102951e-03" style="stop-color:#000000;stop-opacity:0"/>
			<stop  offset="3.953034e-02" style="stop-color:#000000;stop-opacity:7.144105e-02"/>
			<stop  offset="0.5" style="stop-color:#000000"/>
			<stop  offset="1" style="stop-color:#000000;stop-opacity:0"/>
		</linearGradient>
		<path style="fill:url(#SVGID_00000005969286061497199970000003177964370966871227_);" d="M864.3,3375.5
			c3.6,14.4,7.6,28.6,11.8,42.8l-13.5,3.9c-4.2-14.4-8.1-28.8-11.8-43.3L864.3,3375.5z"/>
		
			<linearGradient id="SVGID_00000119816251881445022240000009017818839054132877_" gradientUnits="userSpaceOnUse" x1="72.5744" y1="3468.1973" x2="1177.5677" y2="3468.1973">
			<stop  offset="4.102951e-03" style="stop-color:#000000;stop-opacity:0"/>
			<stop  offset="3.953034e-02" style="stop-color:#000000;stop-opacity:7.144105e-02"/>
			<stop  offset="0.5" style="stop-color:#000000"/>
			<stop  offset="1" style="stop-color:#000000;stop-opacity:0"/>
		</linearGradient>
		<path style="fill:url(#SVGID_00000119816251881445022240000009017818839054132877_);" d="M884.2,3444.8c2.2,7.1,4.5,14.1,6.8,21.2
			c2.3,7,4.6,14.1,7,21.1l-13,4.6c-2.6-7-5-14.1-7.4-21.2c-2.4-7.1-4.7-14.2-7-21.3L884.2,3444.8z"/>
		
			<linearGradient id="SVGID_00000051345334317268120030000003718804425632071586_" gradientUnits="userSpaceOnUse" x1="72.5744" y1="3536.2847" x2="1177.5677" y2="3536.2847">
			<stop  offset="4.102951e-03" style="stop-color:#000000;stop-opacity:0"/>
			<stop  offset="3.953034e-02" style="stop-color:#000000;stop-opacity:7.144105e-02"/>
			<stop  offset="0.5" style="stop-color:#000000"/>
			<stop  offset="1" style="stop-color:#000000;stop-opacity:0"/>
		</linearGradient>
		<path style="fill:url(#SVGID_00000051345334317268120030000003718804425632071586_);" d="M907.1,3513.2c5,14,10.2,27.8,15.6,41.6
			l-11.3,4.6c-5.8-13.8-11.3-27.7-16.7-41.6L907.1,3513.2z"/>
		
			<linearGradient id="SVGID_00000036974430776812428870000004618496963329081791_" gradientUnits="userSpaceOnUse" x1="72.5744" y1="3603.2" x2="1177.5677" y2="3603.2">
			<stop  offset="4.102951e-03" style="stop-color:#000000;stop-opacity:0"/>
			<stop  offset="3.953034e-02" style="stop-color:#000000;stop-opacity:7.144105e-02"/>
			<stop  offset="0.5" style="stop-color:#000000"/>
			<stop  offset="1" style="stop-color:#000000;stop-opacity:0"/>
		</linearGradient>
		<path style="fill:url(#SVGID_00000036974430776812428870000004618496963329081791_);" d="M933.1,3580.5
			c5.6,13.7,11.5,27.4,17.5,40.9l-9.7,4.4c-6.3-13.5-12.5-27.1-18.5-40.8L933.1,3580.5z"/>
		
			<linearGradient id="SVGID_00000026847517997639533050000015666003126992729013_" gradientUnits="userSpaceOnUse" x1="72.5744" y1="3668.8826" x2="1177.5677" y2="3668.8826">
			<stop  offset="4.102951e-03" style="stop-color:#000000;stop-opacity:0"/>
			<stop  offset="3.953034e-02" style="stop-color:#000000;stop-opacity:7.144105e-02"/>
			<stop  offset="0.5" style="stop-color:#000000"/>
			<stop  offset="1" style="stop-color:#000000;stop-opacity:0"/>
		</linearGradient>
		<path style="fill:url(#SVGID_00000026847517997639533050000015666003126992729013_);" d="M962,3646.7
			c6.2,13.5,12.6,26.9,19.2,40.2l-8.1,4.1c-6.9-13.3-13.6-26.6-20.1-40L962,3646.7z"/>
		
			<linearGradient id="SVGID_00000170239918747521555450000000248918452134769809_" gradientUnits="userSpaceOnUse" x1="72.5744" y1="3733.3091" x2="1177.5677" y2="3733.3091">
			<stop  offset="4.102951e-03" style="stop-color:#000000;stop-opacity:0"/>
			<stop  offset="3.953034e-02" style="stop-color:#000000;stop-opacity:7.144105e-02"/>
			<stop  offset="0.5" style="stop-color:#000000"/>
			<stop  offset="1" style="stop-color:#000000;stop-opacity:0"/>
		</linearGradient>
		<path style="fill:url(#SVGID_00000170239918747521555450000000248918452134769809_);" d="M993.6,3711.7
			c6.7,13.2,13.6,26.4,20.6,39.5l-6.5,3.6c-7.4-13-14.6-26-21.7-39.2L993.6,3711.7z"/>
		
			<linearGradient id="SVGID_00000005226360092905375450000004048907666865022596_" gradientUnits="userSpaceOnUse" x1="72.5744" y1="3796.4858" x2="1177.5677" y2="3796.4858">
			<stop  offset="4.102951e-03" style="stop-color:#000000;stop-opacity:0"/>
			<stop  offset="3.953034e-02" style="stop-color:#000000;stop-opacity:7.144105e-02"/>
			<stop  offset="0.5" style="stop-color:#000000"/>
			<stop  offset="1" style="stop-color:#000000;stop-opacity:0"/>
		</linearGradient>
		<path style="fill:url(#SVGID_00000005226360092905375450000004048907666865022596_);" d="M1027.5,3775.6c7.2,13,14.6,25.9,22,38.8
			l-4.9,2.9c-7.8-12.7-15.5-25.5-23-38.4L1027.5,3775.6z"/>
		
			<linearGradient id="SVGID_00000160179396083406899780000006031441419735358343_" gradientUnits="userSpaceOnUse" x1="72.5744" y1="3858.373" x2="1177.5677" y2="3858.373">
			<stop  offset="4.102951e-03" style="stop-color:#000000;stop-opacity:0"/>
			<stop  offset="3.953034e-02" style="stop-color:#000000;stop-opacity:7.144105e-02"/>
			<stop  offset="0.5" style="stop-color:#000000"/>
			<stop  offset="1" style="stop-color:#000000;stop-opacity:0"/>
		</linearGradient>
		<path style="fill:url(#SVGID_00000160179396083406899780000006031441419735358343_);" d="M1063.7,3838.3
			c7.7,12.7,15.5,25.4,23.4,38l-3.4,2.2c-8.3-12.4-16.4-24.9-24.4-37.5L1063.7,3838.3z"/>
		
			<linearGradient id="SVGID_00000019671393635438673850000006266264562481862792_" gradientUnits="userSpaceOnUse" x1="72.5744" y1="3918.8789" x2="1177.5677" y2="3918.8789">
			<stop  offset="4.102951e-03" style="stop-color:#000000;stop-opacity:0"/>
			<stop  offset="3.953034e-02" style="stop-color:#000000;stop-opacity:7.144105e-02"/>
			<stop  offset="0.5" style="stop-color:#000000"/>
			<stop  offset="1" style="stop-color:#000000;stop-opacity:0"/>
		</linearGradient>
		<path style="fill:url(#SVGID_00000019671393635438673850000006266264562481862792_);" d="M1102.1,3899.7
			c8.1,12.5,16.3,24.9,24.7,37.2l-1.7,1.2c-8.7-12.1-17.3-24.3-25.7-36.6L1102.1,3899.7z"/>
		
			<linearGradient id="SVGID_00000020377766547158271960000007322074784390688160_" gradientUnits="userSpaceOnUse" x1="72.5744" y1="3977.7808" x2="1177.5677" y2="3977.7808">
			<stop  offset="4.102951e-03" style="stop-color:#000000;stop-opacity:0"/>
			<stop  offset="3.953034e-02" style="stop-color:#000000;stop-opacity:7.144105e-02"/>
			<stop  offset="0.5" style="stop-color:#000000"/>
			<stop  offset="1" style="stop-color:#000000;stop-opacity:0"/>
		</linearGradient>
		<path style="fill:url(#SVGID_00000020377766547158271960000007322074784390688160_);" d="M1142.6,3959.7
			c8.6,12.2,17.3,24.2,26.3,36.1l-0.1,0.1c-9.3-11.6-18.4-23.4-27.3-35.4L1142.6,3959.7z"/>
	</g>
</g>
</svg>
