<?xml version="1.0" encoding="utf-8"?>
<svg version="1.1" id="Layer_2" xmlns="http://www.w3.org/2000/svg" xmlns:xlink="http://www.w3.org/1999/xlink" x="0px" y="0px" width="1200" height="4000"
	 viewBox="0 0 1200 4000" style="enable-background:new 0 0 1200 4000; " xml:space="preserve">
<g>
	<g>
		<path d="M79.5,0c0.2,14.9,1.1,29.8,2.6,44.6l-1.3,0.1C79.7,29.8,79.3,14.9,79.5,0z"/>
		<path d="M85.7,72.1c2.3,14.7,5.4,29.2,9.1,43.6l-3.2,0.8c-3.3-14.6-6-29.3-7.9-44.1L85.7,72.1z"/>
		<path d="M102.4,142.3c4.5,14.1,9.7,28,15.5,41.7l-4.8,2c-5.5-13.9-10.4-28.1-14.6-42.4L102.4,142.3z"/>
		<path d="M129.4,209.1c6.5,13.3,13.6,26.3,21.2,39l-6.1,3.5c-7.3-13.1-14.2-26.4-20.4-40L129.4,209.1z"/>
		<path d="M165.3,271.5c8.1,12.4,16.7,24.4,25.6,36.3l-7.1,5.2c-8.7-12.2-17.1-24.6-25-37.3L165.3,271.5z"/>
		<path d="M207.8,329.6c9.3,11.5,18.9,22.9,28.7,34l-7.9,6.8c-9.6-11.4-19-23.1-28.2-34.9L207.8,329.6z"/>
		<path d="M255,384.2c10,10.9,20.2,21.7,30.5,32.4l-8.7,8.2c-10.1-11-20.1-22-30-33.3L255,384.2z"/>
		<polygon points="304.9,436.5 336.2,468.3 326.5,477.7 295.8,445.2 		"/>
		<path d="M355.7,488.1c10.4,10.7,20.6,21.6,30.7,32.7l-10.4,9.6c-10.1-10.9-20.3-21.7-30.5-32.5L355.7,488.1z"/>
		<path d="M405,541.6c9.9,11.3,19.5,22.8,28.9,34.5l-10.9,8.6c-9.2-11.6-18.7-22.9-28.5-33.9L405,541.6z"/>
		<path d="M450.9,598.5c8.8,12.2,17.2,24.8,25,37.8l-11.9,7.1c-7.5-12.6-15.6-24.8-24.3-36.7L450.9,598.5z"/>
		<path d="M489.5,661.1c6.8,13.6,12.8,27.6,17.7,42l-13.2,4.5c-4.7-13.8-10.4-27.2-17-40.2L489.5,661.1z"/>
		<path d="M515.1,730.4c3.5,14.8,5.8,30,6.9,45.2l-13.9,1c-1-14.5-3.2-28.9-6.6-43L515.1,730.4z"/>
		<path d="M522.6,804.1c-0.5,15.2-2.1,30.4-4.8,45.4l-13.7-2.4c2.5-14.4,4.1-28.9,4.5-43.4L522.6,804.1z"/>
		<path d="M511.7,877.2c-1.9,7.3-4.1,14.6-6.4,21.8c-1.2,3.6-2.4,7.2-3.6,10.8l-1.9,5.3l-1.9,5.2l-13.1-4.7l1.9-5.3l1.9-5.2
			c1.2-3.5,2.4-6.9,3.5-10.4c2.3-7,4.3-14,6.2-21L511.7,877.2z"/>
		<path d="M488.8,946.4c-4.6,14-8.9,28.2-12.8,42.4l-13.4-3.6c3.9-14.5,8.3-28.9,13-43.1L488.8,946.4z"/>
		<path d="M469.4,1015.5c-3.3,14.4-6.1,28.8-8.4,43.4l-13.7-2.1c2.3-14.9,5.2-29.7,8.5-44.3L469.4,1015.5z"/>
		<path d="M457.5,1086.1c-1.5,14.6-2.3,29.3-2.5,43.9l-13.9-0.1c0.1-15.1,1-30.2,2.6-45.2L457.5,1086.1z"/>
		<path d="M455.6,1157.4c0.8,14.6,2.3,29.2,4.7,43.7l-13.7,2.2c-2.4-14.9-4-30-4.8-45.1L455.6,1157.4z"/>
		<path d="M465.5,1227.8c3.3,14.3,7.3,28.4,12.1,42.2l-13.1,4.5c-4.9-14.3-9.1-28.9-12.5-43.6L465.5,1227.8z"/>
		<path d="M487.3,1295.7c5.6,13.6,11.8,26.9,18.5,40l-12.4,6.3c-6.9-13.4-13.2-27.1-19-41.1L487.3,1295.7z"/>
		<path d="M518.9,1359.9c7.3,12.8,15.1,25.4,23.1,37.7l-11.6,7.6c-8.2-12.6-16.1-25.4-23.6-38.4L518.9,1359.9z"/>
		<path d="M557.5,1420.4c8.5,12.1,17.2,24.1,26.2,35.9l-11.1,8.4c-9-11.9-17.9-24-26.5-36.3L557.5,1420.4z"/>
		<path d="M600.5,1478.2c4.6,5.8,9.2,11.6,13.9,17.4l14.1,17.3l-10.8,8.7l-14.1-17.3c-4.7-5.8-9.4-11.7-14-17.5L600.5,1478.2z"/>
		<path d="M645.7,1535c9,12.1,17.6,24.4,25.8,37l-11.7,7.6c-8-12.4-16.5-24.5-25.3-36.3L645.7,1535z"/>
		<path d="M686.3,1595.9c7.7,12.9,14.9,26.1,21.7,39.6l-12.4,6.3c-6.6-13.2-13.7-26.1-21.2-38.8L686.3,1595.9z"/>
		<path d="M720.1,1660.8c6.2,13.7,11.9,27.6,17.2,41.7l-13,4.9c-5.1-13.8-10.8-27.4-16.8-40.9L720.1,1660.8z"/>
		<path d="M746.6,1729.1c4.7,14.3,8.8,28.8,12.5,43.4l-13.5,3.4c-3.6-14.3-7.7-28.5-12.2-42.5L746.6,1729.1z"/>
		<path d="M765.4,1799.8c3.1,14.7,5.6,29.6,7.7,44.5l-13.8,1.9c-2-14.6-4.5-29.1-7.5-43.6L765.4,1799.8z"/>
		<path d="M776.3,1872.2c1.5,15,2.5,30,3,45l-13.9,0.5c-0.5-14.7-1.5-29.5-2.9-44.1L776.3,1872.2z"/>
		<path d="M779.8,1945.2c0,15-0.5,30.1-1.5,45l-13.9-0.9c0.9-14.7,1.4-29.5,1.4-44.2L779.8,1945.2z"/>
		<path d="M776.1,2018.2l-0.6,5.6l-0.1,1.4l-0.2,1.5c-0.1,1-0.3,2-0.4,2.9c-0.6,3.9-1.3,7.8-2.2,11.6c-1.8,7.6-4.3,15-7.2,22.2
			l-12.9-5.2c2.7-6.6,4.9-13.4,6.5-20.2c0.8-3.4,1.5-6.9,2-10.3c0.1-0.9,0.2-1.7,0.3-2.6l0.2-1.3l0.1-1.4l0.6-5.5L776.1,2018.2z"/>
		<path d="M752.8,2089.2c-7.6,13.3-16.2,25.8-25.4,37.9l-11.1-8.4c8.9-11.7,17.2-23.7,24.3-36.3L752.8,2089.2z"/>
		<path d="M709.8,2149c-9.7,11.5-19.8,22.6-30,33.6l-10.1-9.5c10.1-10.8,20-21.8,29.5-33L709.8,2149z"/>
		<path d="M660.5,2202.8c-10.4,10.7-21,21.3-31.6,31.8l-9.8-9.9c10.6-10.5,21.1-21,31.4-31.6L660.5,2202.8z"/>
		<polygon points="609.1,2254.1 577.3,2285.4 567.6,2275.5 599.4,2244.2 		"/>
		<path d="M557.7,2305c-10.5,10.5-20.9,21.1-31.1,31.8l-10-9.6c10.3-10.8,20.8-21.5,31.3-32L557.7,2305z"/>
		<path d="M507.6,2357c-10.1,10.9-20,21.9-29.7,33.1l-10.5-9.1c9.8-11.3,19.8-22.4,30-33.4L507.6,2357z"/>
		<path d="M460.1,2411.1c-9.4,11.4-18.5,23-27.3,34.9l-11.2-8.3c9-12.1,18.2-23.9,27.8-35.4L460.1,2411.1z"/>
		<path d="M416.7,2468.4c-8.3,12.2-16.3,24.6-23.8,37.2l-12-7.1c7.7-13,15.8-25.6,24.3-38L416.7,2468.4z"/>
		<path d="M379.6,2529.6c-6.8,13-13.1,26.3-18.8,39.8l-12.8-5.3c5.8-14,12.3-27.6,19.3-41L379.6,2529.6z"/>
		<path d="M351.1,2595.1c-4.8,13.9-8.8,27.9-12,42.2l-13.6-3.1c3.3-14.8,7.5-29.4,12.4-43.7L351.1,2595.1z"/>
		<path d="M334.1,2664.1c-2.2,14.5-3.5,29-3.9,43.6l-13.9-0.4c0.4-15.2,1.8-30.3,4-45.3L334.1,2664.1z"/>
		<path d="M330.5,2734.9c0.8,14.5,2.7,29,5.8,43.2l-13.6,2.9c-3.2-14.9-5.2-30.1-6.1-45.3L330.5,2734.9z"/>
		<path d="M343.4,2804.2c4.5,13.8,10.1,27.2,16.8,40.1l-12.3,6.4c-7-13.6-12.9-27.7-17.7-42.2L343.4,2804.2z"/>
		<path d="M373.7,2867.8c7.9,12.3,16.6,24,26.1,35.1l-10.6,9c-9.8-11.6-18.9-23.8-27.1-36.6L373.7,2867.8z"/>
		<path d="M418.2,2923.2c10.2,10.5,21,20.5,32.1,30.2l-9.1,10.5c-11.4-9.9-22.4-20.2-33-31L418.2,2923.2z"/>
		<path d="M471.6,2971c11.6,9.2,23.4,18,35.5,26.6l-8.1,11.3c-12.2-8.7-24.2-17.7-36-27L471.6,2971z"/>
		<path d="M529.8,3013.4c12.3,8.3,24.6,16.5,37.1,24.6l-7.6,11.7c-12.5-8.1-25-16.4-37.3-24.8L529.8,3013.4z"/>
		<polygon points="590.2,3053.1 627.8,3077.3 620.2,3088.9 582.7,3064.8 		"/>
		<path d="M651.1,3092.6c12.4,8.3,24.8,16.7,37,25.4l-8.1,11.3c-12.1-8.6-24.3-16.9-36.7-25.1L651.1,3092.6z"/>
		<path d="M710.7,3134.5c12,9.1,23.7,18.5,35.1,28.4l-9.1,10.5c-11.1-9.7-22.6-18.9-34.4-27.8L710.7,3134.5z"/>
		<path d="M766.5,3182c10.8,10.5,21.2,21.7,30.8,33.4l-10.8,8.8c-9.2-11.3-19.2-22-29.7-32.3L766.5,3182z"/>
		<path d="M814.2,3238.2c8.5,12.6,16.1,26,22.4,39.9l-12.7,5.7c-6-13.2-13.2-25.8-21.3-37.9L814.2,3238.2z"/>
		<path d="M847,3304.7c2.4,7.3,4.4,14.7,6,22.2l4.8,21.8l-13.5,3.1l-4.8-21.9c-1.6-7.1-3.5-14-5.7-20.9L847,3304.7z"/>
		<path d="M864.3,3375.5c3.6,14.4,7.6,28.6,11.8,42.8l-13.5,3.9c-4.2-14.4-8.1-28.8-11.8-43.3L864.3,3375.5z"/>
		<path d="M884.2,3444.8c2.2,7.1,4.5,14.1,6.8,21.2c2.3,7,4.6,14.1,7,21.1l-13,4.6c-2.6-7-5-14.1-7.4-21.2c-2.4-7.1-4.7-14.2-7-21.3
			L884.2,3444.8z"/>
		<path d="M907.1,3513.2c5,14,10.2,27.8,15.6,41.6l-11.3,4.6c-5.8-13.8-11.3-27.7-16.7-41.6L907.1,3513.2z"/>
		<path d="M933.1,3580.5c5.6,13.7,11.5,27.4,17.5,40.9l-9.7,4.4c-6.3-13.5-12.5-27.1-18.5-40.8L933.1,3580.5z"/>
		<path d="M962,3646.7c6.2,13.5,12.6,26.9,19.2,40.2l-8.1,4.1c-6.9-13.3-13.6-26.6-20.1-40L962,3646.7z"/>
		<path d="M993.6,3711.7c6.7,13.2,13.6,26.4,20.6,39.5l-6.5,3.6c-7.4-13-14.6-26-21.7-39.2L993.6,3711.7z"/>
		<path d="M1027.5,3775.6c7.2,13,14.6,25.9,22,38.8l-4.9,2.9c-7.8-12.7-15.5-25.5-23-38.4L1027.5,3775.6z"/>
		<path d="M1063.7,3838.3c7.7,12.7,15.5,25.4,23.4,38l-3.4,2.2c-8.3-12.4-16.4-24.9-24.4-37.5L1063.7,3838.3z"/>
		<path d="M1102.1,3899.7c8.1,12.5,16.3,24.9,24.7,37.2l-1.7,1.2c-8.7-12.1-17.3-24.3-25.7-36.6L1102.1,3899.7z"/>
		<path d="M1142.6,3959.7c8.6,12.2,17.3,24.2,26.3,36.1l-0.1,0.1c-9.3-11.6-18.4-23.4-27.3-35.4L1142.6,3959.7z"/>
	</g>
</g>
</svg>
