<?xml version="1.0" encoding="utf-8"?>
<svg version="1.1" id="Layer_1" xmlns="http://www.w3.org/2000/svg" xmlns:xlink="http://www.w3.org/1999/xlink" x="0px" y="0px"
	 viewBox="0 0 28 28" style="enable-background:new 0 0 28 28;pointer-events: none; display: block; width: 100%; height: 100%;" xml:space="preserve" focusable="false">
<g>
	<path d="M10.1,8.3c3-2,6.2-3.1,9.3-3.2c-1.1-1.2-2.8-1.5-4.2-1.5c-0.6,0-1.1,0-1.5,0.1C12,4.2,10.2,5.2,8.8,6
		C5.4,8.1,3.7,10.4,3,11.6c-0.6,1.7-0.5,3.4,0.2,4.8C4.5,13.3,7,10.4,10.1,8.3z"/>
	<path d="M26.9,5.7L26.9,5.7c-1.8-2.8-5.2-3.9-9.4-3.3c1.6,0.4,2.9,1.2,3.7,2.5c2.3,3.5-0.3,9.2-5.8,12.8c-3.2,2.1-6.8,3-9.7,2.4
		c-1.7-0.4-3.1-1.2-3.9-2.5c-0.5-0.8-0.8-1.8-0.9-2.8c-1.2,3-1.2,5.9,0.2,8c1,1.6,2.8,2.7,5,3.1c4,0.8,8.9-0.4,13.3-3.3
		C26.5,17.8,29.9,10.2,26.9,5.7z"/>
</g>
</svg>
