<?xml version="1.0" encoding="utf-8"?>
<svg version="1.1" id="Layer_1" focusable="false" xmlns="http://www.w3.org/2000/svg" xmlns:xlink="http://www.w3.org/1999/xlink"
	 x="0px" y="0px" viewBox="0 0 73 73" style="enable-background:new 0 0 73 73;" xml:space="preserve">
<style type="text/css">
	.st0{fill-rule:evenodd;clip-rule:evenodd;}
</style>
<path class="st0" d="M57.8,32.4c-11.6-6.9-30.7-7.5-41.8-4.2c-1.8,0.5-3.7-0.5-4.2-2.2c-0.5-1.8,0.5-3.7,2.2-4.2
	c12.7-3.9,33.8-3.1,47.1,4.8c1.6,0.9,2.1,3,1.2,4.6C61.4,32.8,59.4,33.4,57.8,32.4z M57.4,42.6c-0.8,1.3-2.5,1.7-3.9,0.9
	c-9.7-5.9-24.4-7.7-35.8-4.2c-1.5,0.4-3-0.4-3.5-1.9c-0.4-1.5,0.4-3,1.9-3.5c13.1-4,29.3-2,40.4,4.8C57.8,39.6,58.2,41.3,57.4,42.6z
	 M53,52.4c-0.6,1.1-2,1.4-3.1,0.7c-8.4-5.2-19.1-6.3-31.6-3.5c-1.2,0.3-2.4-0.5-2.7-1.7c-0.3-1.2,0.5-2.4,1.7-2.7
	c13.7-3.1,25.4-1.8,34.9,4C53.3,50,53.6,51.3,53,52.4z M36.5,0.6c-19.9,0-36,16.1-36,36c0,19.9,16.1,35.9,36,35.9
	c19.9,0,35.9-16.1,35.9-35.9C72.4,16.6,56.4,0.6,36.5,0.6z"/>
</svg>
