<?xml version="1.0" encoding="utf-8"?>
<svg version="1.1" id="Layer_1" focusable="false" xmlns="http://www.w3.org/2000/svg" xmlns:xlink="http://www.w3.org/1999/xlink"
	 x="0px" y="0px" viewBox="0 0 73 73" style="enable-background:new 0 0 73 73;" xml:space="preserve">
<path d="M71,19.1c-0.9-3-3.3-5.4-6.3-6.3c-5.7-1.5-28.2-1.5-28.2-1.5s-22.5,0-28.2,1.5c-3,0.9-5.4,3.3-6.3,6.3
	c-1.5,5.7-1.5,17.4-1.5,17.4s0,11.7,1.5,17.4c0.9,3,3.3,5.4,6.3,6.3c5.7,1.5,28.2,1.5,28.2,1.5s22.5,0,28.2-1.5
	c3-0.9,5.4-3.3,6.3-6.3c1.5-5.7,1.5-17.4,1.5-17.4S72.4,24.8,71,19.1z M29.3,47.3V25.7l18.6,10.8L29.3,47.3z"/>
</svg>
