<?xml version="1.0" encoding="utf-8"?>
<svg version="1.1" id="Layer_1" focusable="false" xmlns="http://www.w3.org/2000/svg" xmlns:xlink="http://www.w3.org/1999/xlink"
	 x="0px" y="0px" viewBox="0 0 73 73" style="enable-background:new 0 0 73 73;" xml:space="preserve">
<g>
	<path d="M36.5,49.5c7.1,0,13-5.9,13-13s-5.9-13-13-13s-13,5.9-13,13C23.5,43.6,29.4,49.5,36.5,49.5z M21.6,49.5
		c-7,0-12.8-5.9-12.8-13s5.8-13,12.8-13V49.5z M51.4,63.5V51.4h12.1C63.5,58.2,58.2,63.5,51.4,63.5z M21.6,9.5v12.1H9.5
		C9.5,14.9,14.9,9.5,21.6,9.5L21.6,9.5z M21.6,63.5V51.4H9.5C9.5,58.2,14.9,63.5,21.6,63.5L21.6,63.5z M66.2,47.5V25.5
		c3.8,2.2,6.2,6.3,6.2,11S70,45.4,66.2,47.5L66.2,47.5z M25.5,6.8h22.1c-2.2-3.7-6.3-6.2-11-6.2C31.8,0.6,27.6,3.1,25.5,6.8z
		 M47.3,66.2h-22c2.2,3.7,6.3,6.2,11,6.2C40.9,72.5,45.2,70,47.3,66.2z M49.5,51.4c0,7.2-5.9,12.8-13,12.8s-13-5.6-13-12.8H49.5z
		 M51.4,49.5c7.2,0,12.8-5.9,12.8-13s-5.6-13-12.8-13V49.5z M49.5,21.6c0-7-5.9-12.8-13-12.8s-13,5.8-13,12.8H49.5z M6.8,47.5
		L7,25.5c-3.9,2.2-6.4,6.3-6.4,11S3.1,45.4,6.8,47.5L6.8,47.5z M63.5,21.6H51.4V9.5C58.2,9.5,63.5,14.9,63.5,21.6L63.5,21.6z"/>
</g>
</svg>
