<?xml version="1.0" encoding="utf-8"?>
<svg version="1.1" id="Artwork" focusable="false" xmlns="http://www.w3.org/2000/svg" xmlns:xlink="http://www.w3.org/1999/xlink"
	 x="0px" y="0px" viewBox="0 0 73 73" style="enable-background:new 0 0 73 73;" xml:space="preserve">
<path d="M72.5,20.4c0-0.7,0-1.4,0-2.2c0-1.6-0.1-3.2-0.4-4.7c-0.3-1.6-0.7-3.1-1.5-4.5c-0.7-1.4-1.7-2.7-2.8-3.8s-2.4-2-3.8-2.8
	c-1.5-0.7-3-1.2-4.5-1.4c-1.6-0.3-3.2-0.4-4.7-0.4c-0.7,0-1.4,0-2.2,0c-0.9,0-1.7,0-2.6,0H23c-0.9,0-1.7,0-2.6,0c-0.7,0-1.4,0-2.2,0
	c-1.6,0-3.2,0.1-4.7,0.4C12,1.2,10.5,1.7,9,2.4C7.6,3.2,6.3,4.1,5.2,5.2S3.2,7.6,2.4,9c-0.7,1.5-1.2,3-1.4,4.5
	c-0.3,1.6-0.4,3.2-0.4,4.7c0,0.7,0,1.4,0,2.2c0,0.9,0,1.7,0,2.6v27c0,0.9,0,1.7,0,2.6c0,0.7,0,1.4,0,2.2c0,1.6,0.1,3.2,0.4,4.7
	c0.2,1.5,0.7,3,1.4,4.5c0.7,1.4,1.7,2.7,2.8,3.8c1.1,1.1,2.4,2.1,3.8,2.8c1.4,0.7,2.9,1.2,4.5,1.5s3.2,0.4,4.7,0.4
	c0.7,0,1.4,0,2.2,0c0.9,0,1.7,0,2.6,0h27c0.9,0,1.7,0,2.6,0c0.7,0,1.4,0,2.2,0c1.6,0,3.2-0.1,4.7-0.4c1.6-0.3,3.1-0.7,4.5-1.5
	c1.4-0.7,2.7-1.7,3.8-2.8c1.1-1.1,2.1-2.4,2.8-3.8c0.7-1.4,1.2-2.9,1.5-4.5s0.4-3.2,0.4-4.7c0-0.7,0-1.4,0-2.2c0-0.9,0-1.7,0-2.6V23
	C72.5,22.2,72.5,21.3,72.5,20.4z M42,48.2c-0.2,2-0.5,4.7-0.9,7.4c-0.3,1.9-0.5,3-0.8,3.8c-0.4,1.2-1.7,2.3-3.8,2.3
	s-3.5-1.1-3.8-2.3c-0.2-0.8-0.5-1.8-0.8-3.8c-0.4-2.7-0.8-5.4-0.9-7.4c-0.2-2.1-0.3-3.4-0.1-5c0.1-0.8,0.4-1.4,0.9-1.9
	c1-1,2.7-1.7,4.8-1.7s3.8,0.7,4.8,1.7c0.5,0.5,0.8,1.1,0.9,1.9C42.3,44.8,42.2,46.1,42,48.2z M27.9,43.1c0.2,0.2,0.3,0.5,0.3,0.8
	c0,0.9,0,1.7,0,2.6c0,0.3-0.3,0.4-0.5,0.3c-4.1-2.8-6.8-7.6-6.8-13c0.1-8.2,6.7-15,14.9-15.3C44.7,18.1,52,25.2,52,34
	c0,5.3-2.7,10-6.8,12.8c-0.2,0.1-0.5,0-0.5-0.3c0.1-0.9,0.1-1.8,0-2.6c0-0.3,0.1-0.6,0.3-0.8c2.4-2.3,4-5.5,4-9.1
	c0-7.1-5.9-12.8-13-12.5c-6.6,0.3-11.9,5.6-12,12.2C23.8,37.4,25.4,40.7,27.9,43.1z M41.9,32.1c0,3-2.4,5.4-5.4,5.4
	s-5.4-2.4-5.4-5.4s2.4-5.4,5.4-5.4C39.5,26.7,41.9,29.1,41.9,32.1z M44.1,55.8c-0.2,0.1-0.4-0.1-0.4-0.3c0.1-0.8,0.2-1.6,0.3-2.4
	c0-0.3,0.2-0.5,0.5-0.6c7.1-3.1,12.1-10.2,12.1-18.5c0-11.2-9.1-20.3-20.4-20.2c-11,0.1-19.9,9-20,20c-0.1,8.4,4.9,15.6,12.1,18.7
	c0.3,0.1,0.4,0.3,0.5,0.6c0.1,0.8,0.2,1.6,0.3,2.4c0,0.2-0.2,0.4-0.4,0.3c-9.1-3.2-15.6-11.9-15.5-22.1
	c0.2-12.6,10.5-22.8,23.1-22.9c12.8,0,23.2,10.4,23.2,23.1C59.6,44,53.2,52.6,44.1,55.8z"/>
</svg>
