<?xml version="1.0" encoding="utf-8"?>
<svg version="1.1" id="Layer_1" focusable="false" xmlns="http://www.w3.org/2000/svg" xmlns:xlink="http://www.w3.org/1999/xlink"
	 x="0px" y="0px" viewBox="0 0 73 73" style="enable-background:new 0 0 73 73;" xml:space="preserve">
<g>
	<path d="M26.5,21.4c7.7-5.1,15.9-8,23.9-8.2c-2.8-3.1-7.2-3.9-10.8-3.9c-1.5,0-2.8,0-3.9,0.3c-4.4,1.3-9,3.9-12.6,5.9
		C14.4,20.8,10,26.8,8.2,29.8c-1.5,4.4-1.3,8.7,0.5,12.3C12.1,34.2,18.5,26.8,26.5,21.4z"/>
	<path d="M69.6,14.7L69.6,14.7C65,7.5,56.3,4.6,45.5,6.2c4.1,1,7.5,3.1,9.5,6.4c5.9,9-0.8,23.7-14.9,32.9
		c-8.2,5.4-17.5,7.7-24.9,6.2c-4.4-1-8-3.1-10-6.4c-1.3-2.1-2.1-4.6-2.3-7.2c-3.1,7.7-3.1,15.2,0.5,20.6c2.6,4.1,7.2,6.9,12.9,8
		c10.3,2.1,22.9-1,34.2-8.5C68.6,45.8,77.4,26.2,69.6,14.7z"/>
</g>
</svg>
