<?xml version="1.0" standalone="no"?>
<!DOCTYPE svg PUBLIC "-//W3C//DTD SVG 20010904//EN"
 "http://www.w3.org/TR/2001/REC-SVG-20010904/DTD/svg10.dtd">
<svg version="1.0" xmlns="http://www.w3.org/2000/svg"
 width="700.000000pt" height="700.000000pt" viewBox="0 0 700.000000 700.000000"
 preserveAspectRatio="xMidYMid meet">
<metadata>
Created by potrace 1.14, written by Peter Selinger 2001-2017
</metadata>
<g transform="translate(0.000000,700.000000) scale(0.100000,-0.100000)"
fill="#000000" stroke="none">
<path d="M5250 6543 c-91 -18 -177 -35 -192 -37 -15 -3 -35 -7 -45 -10 -10 -3
-34 -7 -53 -10 -19 -3 -64 -12 -100 -20 -36 -8 -81 -17 -100 -20 -19 -3 -46
-8 -60 -11 -59 -12 -177 -35 -200 -39 -24 -4 -164 -32 -205 -40 -30 -6 -236
-47 -265 -52 -190 -37 -282 -61 -410 -109 -567 -212 -1037 -605 -1318 -1102
-68 -121 -112 -226 -322 -783 -233 -618 -260 -688 -271 -715 -5 -11 -51 -132
-103 -270 -52 -137 -99 -261 -104 -275 -6 -14 -52 -135 -103 -270 -101 -272
-326 -867 -336 -890 -3 -8 -7 -17 -8 -20 -1 -3 -4 -12 -8 -20 -3 -8 -15 -42
-28 -75 -12 -33 -35 -94 -51 -135 -49 -127 -64 -183 -62 -230 1 -39 50 -178
99 -285 7 -16 20 -48 28 -70 62 -174 212 -525 235 -552 89 -101 256 -107 351
-12 41 42 47 53 181 409 44 118 87 231 95 250 20 49 204 535 225 595 10 28 54
145 98 260 73 191 137 358 454 1195 55 146 110 292 123 325 13 33 67 175 119
315 53 140 120 302 148 360 271 551 811 1014 1423 1219 131 44 322 91 434 107
20 3 42 7 50 10 8 2 30 7 50 10 20 3 68 12 106 20 39 9 104 22 145 29 41 8 84
16 95 18 11 3 70 14 130 26 142 27 155 30 185 36 14 3 36 7 50 10 126 24 191
39 226 52 87 31 153 137 148 235 -4 97 -10 104 -433 506 -36 34 -81 69 -100
79 -56 27 -139 23 -321 -14z"/>
<path d="M4625 4102 c-27 -3 -347 -68 -450 -92 -22 -5 -53 -11 -70 -14 -35 -7
-55 -11 -115 -25 -25 -5 -61 -12 -80 -16 -19 -3 -64 -12 -100 -20 -36 -8 -121
-26 -190 -41 -233 -49 -276 -84 -354 -289 -15 -38 -36 -92 -46 -120 -11 -27
-93 -246 -184 -486 -91 -240 -172 -453 -180 -473 -17 -41 -13 -41 49 9 123 97
367 238 535 310 153 66 366 131 520 159 24 4 359 74 390 81 14 3 192 40 236
49 10 3 39 9 64 15 25 5 61 13 80 16 19 3 42 8 50 10 8 2 26 6 40 9 14 2 89
18 167 34 162 34 195 52 225 120 34 76 22 109 -99 284 -170 243 -261 371 -285
400 -44 52 -134 87 -203 80z"/>
</g>
</svg>
