<svg version="1.2" xmlns="http://www.w3.org/2000/svg" viewBox="0 0 1080 1080" width="1080" height="1080">
	<title>LaPetieNina_Logo-svg</title>
	<style>
		.s0 { fill: #ffffff } 
		.s1 { fill: #008b9c } 
		.s2 { fill: #b33a21 } 
		.s3 { fill: #f59a00 } 
	</style>
	<g id="Layer">
		<g id="Layer">
			<path id="Layer" class="s0" d="m762.8 104.1c-4.2 5.6-5 9.6-2.4 11.9 3 2.8 6.1 3.4 9.3 1.9 2.1-1 3.7-2.8 4.8-5.2 1.2-2.6 1.1-4.9-0.3-6.8-1.4-1.9-3.5-2.9-6.2-3.3-2.5-0.2-4.3 0.3-5.2 1.5z"/>
			<path id="Layer" class="s0" d="m893.3 225.1c-0.4 0.1-1 0.7-1.7 1.6q-2.1 2.7-7.2 6c-3.2 2-5.7 3.2-7.6 3.6-2.2 0.5-3.9 0.2-5.1-0.7-1.7-1.4-2.7-4.2-3.1-8.6-0.5-4.2 1.1-12 4.6-23.4 2.5-8.1 4.5-14.2 6.2-18.1q0.4-1-1.2-1.2c-1-0.1-2.3 0-4 0.3-4.1 0.9-6.8 2.1-8 3.7-1.7 2.1-4.3 12.7-7.7 31.8-2.2 3.1-5.1 6.2-8.5 9.4-3.9 3.5-6.9 5.2-8.9 5.2-2.5-0.1-4-2.4-4.4-7.1-0.5-5.4 0.7-12.9 3.5-22.5 2.8-9.4 6.4-16.9 10.7-22.6 3.6-4.7 6.8-7 9.4-6.9 1.7 0.1 3.1 1.3 4 3.5 0.2 0.5 0.4 1.3 0.8 2.7 0.3 1 0.5 1.6 0.7 1.9 0.6 0.9 1.1 1.3 1.3 1.2q0.4 0 0.3-1.8c-0.1-1.4-0.6-3.1-1.3-5.2-0.9-2.3-1.8-3.9-2.7-4.6-1-0.8-2.9-1.6-5.6-2.4-2.8-0.9-5-1.2-6.6-1.2q-6.5 0.3-13.2 9c-4.7 6-8.4 13.8-11.1 23.2-2.9 9.6-3.2 18.1-1.1 25.5 0.2 0.8 0.6 1.5 0.9 2.2-2 1.5-4.2 2.9-6.5 4q-7.4 3.3-12.9 2.1c-4.2-1-4.5-8.8-0.7-23.2 2.5-9.4 5.6-18.4 9.2-27 1.4-3.1 1.8-6 1.2-8.6-0.5-2.3-1.6-4.1-3.4-5.5-0.9-1-2.3-1.5-4.4-1.5-1.6 0-3.1 0.2-4.7 0.7-7.7 2.4-15.9 8.4-24.6 18.1-4.3 4.9-7.8 9.4-10.5 13.8 1-2.5 2.2-7.3 3.6-14.3 1.3-6.8 2-11 1.8-12.7-0.1-1.3-1.1-1.7-3.2-1.3-0.7 0.1-2.5 0.8-5.4 1.9-1.4 0.5-2.5 1.4-3.2 2.4-0.5 0.8-0.8 1.6-0.7 2.4 0.8 10.1 0.1 19.8-2.3 29-0.8 2.9-1.8 6.4-3.2 10.3-1.7 4.8-2.6 7.7-2.9 8.6-0.7 2.2-1.3 5.8-1.6 5.9-4 2-8 2.5-12 1.6-3.9-1-3.6-10.7 0.8-29.2 3.7-15.4 7-26.2 9.9-32.3 1.3-2.7 0.9-4.4-1.1-5.1-0.7-0.2-1.7-0.4-3-0.5-1.6-0.1-2.6-0.2-2.9-0.3-2.2-0.4-4.6 1-7 4.3-6.4 15.8-10.5 30.3-12.3 43.3-0.8 5.5-0.5 10.1 0.8 13.9-1.7 1.2-3.5 2.2-5.5 3.2q-7.4 3.3-12.9 2.1c-4.3-1-4.5-8.8-0.7-23.2q3.7-14.1 9.3-27c1.3-3.1 1.7-6 1.2-8.6-0.5-2.3-1.6-4.1-3.4-5.5-0.9-1-2.3-1.5-4.4-1.5-1.6 0-3.1 0.2-4.7 0.7-7.7 2.4-15.9 8.4-24.6 18.1-4.3 4.9-7.8 9.4-10.5 13.8 1-2.5 2.2-7.3 3.6-14.3 1.3-6.8 1.9-11 1.8-12.7-0.1-1.3-1.1-1.7-3.2-1.3-0.7 0.1-2.5 0.8-5.4 1.9-1.4 0.5-2.5 1.4-3.2 2.4-0.5 0.8-0.8 1.6-0.7 2.4 0.8 10.1 0.1 19.8-2.3 29-0.7 2.9-1.8 6.4-3.2 10.3-1.7 4.8-2.6 7.7-3 8.6-1.3 4.5-0.5 7 2.5 7.6 0.5 0.1 2.9-0.1 7.4-0.7 0.8-0.1 1.4-1 2-2.8 0.3-0.9 0.8-3.2 1.6-6.9 1.9-8.3 4.2-15.1 7-20.3 5.2-9.8 11.5-17.8 18.7-23.9q4.3-3.7 7.2-5.1c1.6-0.8 2.8-1.1 3.8-1.1l0.1 0.3c0.4 1.4 0.1 3.3-0.9 5.8-0.3 0.8-0.8 1.7-1.3 2.9q-1.2 2.3-1.2 2.4c-4.4 9.5-6.6 14.2-6.5 14-0.4 0.9-0.7 1.7-1.1 2.6-3 8.3-4.1 15.7-3.4 22.1 0.9 8.5 5.2 13 13 13.5 9.9 0.6 17.9-1.5 23.9-6.4 2.3 4.1 6 6.4 11.5 6.5 7.3 0.2 13.1-1 17.7-3.2 0.2 0.1 0.3 0.2 0.5 0.2 0.4 0.1 2.9-0.1 7.4-0.7 0.8-0.1 1.4-1 2-2.8 0.3-0.9 0.8-3.2 1.6-6.9 1.9-8.3 4.2-15.1 7-20.3 5.2-9.8 11.5-17.8 18.7-23.9 3-2.5 5.3-4.2 7.2-5.1 1.6-0.8 2.8-1.1 3.8-1.1l0.1 0.3c0.4 1.4 0.1 3.3-0.9 5.8-0.3 0.8-0.8 1.7-1.3 2.9q-1.2 2.3-1.2 2.4c-4.4 9.5-6.6 14.2-6.5 14-0.4 0.9-0.7 1.7-1.1 2.6-2.9 8.3-4.1 15.7-3.4 22.1 0.9 8.5 5.2 13 13 13.5 10.4 0.7 18.6-1.8 24.8-7.3 0.8 1.4 1.6 2.5 2.6 3.5 2.1 2 4.5 3 7.2 3.1 4.7 0.1 9.4-2.1 14.3-6.5 2.4-2.2 4.4-4.4 5.8-6.7 0.3 3.7 1.1 6.4 2.3 8.3 2.1 3.3 6 5.2 11.5 5.7 3.9 0.4 8.2-0.8 12.7-3.5 3.1-1.9 5.8-4.1 8.3-6.7 1-1 1.4-2.1 1.3-3.3 0.4-0.6 0.2-0.7-0.1-0.6z"/>
			<path id="Layer" class="s0" d="m536.3 104.1c-4.2 5.6-5 9.6-2.4 11.9 3 2.8 6.1 3.4 9.4 1.9 2.1-1 3.8-2.8 4.9-5.2 1.2-2.6 1.1-4.9-0.3-6.8-1.4-1.9-3.5-2.9-6.2-3.3q-4-0.3-5.4 1.5z"/>
			<path id="Layer" fill-rule="evenodd" class="s0" d="m621.8 228.7c-2.4 2.8-5.3 5.1-8.9 6.9-5.6 2.7-12.2 3.9-19.7 3.5-7.6-0.4-13.3-3.7-17.3-9.7-2 1.3-4.7 2.7-8.2 4.3-8 3.6-15.6 5.4-22.7 5.4-6.2 0-10.2-1.8-12.3-5.1-4.9 3.5-11.7 5.3-20.7 5.1-5.9-0.1-9.9-2.7-12.1-7.6-1.3 0.6-2.7 1.4-4.4 2.1-8 3.6-15.6 5.4-22.7 5.4-6.7 0-10.9-2.1-12.8-6-1.2 0.8-2.3 1.6-3.7 2.3-5.6 2.7-12.1 3.9-19.7 3.5-8.5-0.5-14.7-4.4-18.7-11.7-3.8-6.9-5.1-15.7-3.8-26.3 1.1-10 5-18.2 11.5-24.5 3-2.9 6.3-4.9 9.7-6 3.5-1.1 7-1.3 10.3-0.3 3.5 1 5.8 2.8 7.1 5.4 1.2 2.7 1.2 5.9-0.1 9.7-3 8.6-11.5 18.2-25.6 28.6-0.2 2.8 0.3 5.8 1.2 8.8 1.9 6.1 5.5 9.7 10.9 11 7 1.6 13.6 0.4 19.9-3.4-0.3-2.1-0.4-5.4-0.4-10 0-4.4 1.8-13.4 5.4-27.2 4.2-16 9-30.9 14.5-44.6-8.9-3.9-19.9-5.9-33.1-5.9-15.4 0-30.8 2.9-46.2 8.6-2.6 1-3.8 1-3.5 0 0.4-1 1.4-2 3.2-3.1 5.5-3.3 14.8-6.2 28-8.7 20-3.7 37.9-2.5 53.5 3.8 5.3-15.6 8.9-26.2 10.7-32 0.4-1.6 0.9-3.4 1.3-5.3 0.4-1.9 0.6-3 0.7-3.3 0.5-1.4 2-2.3 4.4-2.4q6.8-0.3 9.3 0c3.1 0.4 4 1.6 2.5 3.4-1.6 2.1-4.3 8.5-8.2 19.1-3.7 10.4-6.2 18.4-7.5 23.9 8.3 4.6 17.7 5.6 28.2 6.1 4.4 0.2 8.4-0.2 12.1-1.2 4-1.1 6.5-1.7 7.4-1.7 1.2 0 1.6 0.8 1.9 1.6 0.1 0.3 0.5 2.5 0.7 4.3 0 0.6 0.2 1.2 0.4 2 0.2 0.7 0.3 1.2 0.3 1.4 0 0.8-0.8 1.3-2.3 1.4-10.7 0.9-19.7 0.6-27.2-0.8-5-1-10.1-2.3-15.2-4.1-5.8-2-8.8-3-9-3.1-4.7 12.3-8.8 24.9-12.4 37.9q-10.9 38.8-3.3 43.5c3.7 2.2 9.2 1.8 16.4-1.1q3.8-1.5 7.5-3.6c-1-3.6-1.3-7.8-0.6-12.8 1.8-13.1 5.9-27.5 12.3-43.4 2.4-3.3 4.8-4.7 7-4.3q0.6 0.1 3 0.3c1.3 0.1 2.3 0.3 3 0.5 2 0.7 2.4 2.4 1.1 5.1q-4.3 9.3-9.9 32.4c-4.4 18.5-4.7 28.2-0.8 29.2 4 0.9 8 0.4 12-1.6 1.3-0.6 3.1-1.8 5.3-3.4-0.3-2-0.5-5.5-0.5-10.7 0-4.4 1.8-13.4 5.4-27.2 4.2-16 9-30.9 14.5-44.6-8.9-4-10.2-9.1-22.1-7.1-5.6 1-11.5-3.8-2.1-3.9 10.9-0.1 18.4 2.4 26.3 5.7 5.3-15.6 8.9-26.2 10.7-32 0.4-1.6 0.9-3.4 1.3-5.3 0.4-1.9 0.6-3 0.7-3.3 0.5-1.4 2-2.3 4.4-2.4q6.8-0.3 9.3 0c3.1 0.4 4 1.6 2.5 3.4-1.7 2.1-4.4 8.5-8.3 19.1-3.7 10.4-6.2 18.4-7.5 23.9 8.2 4.6 17.6 7.2 28.1 7.7 4.4 0.2 8.4-0.2 12.1-1.2 4-1.1 6.5-1.7 7.4-1.7q1.7 0 2.1 1.2c0.2 0.3 0.3 1.3 0.5 3.1 0 0.6 0.2 1.2 0.4 2 0.2 0.7 0.3 1.2 0.3 1.4 0 0.8-0.8 1.3-2.3 1.4-10.7 0.9-19.7 0.6-27.2-0.8-5-1-10.1-2.3-15.2-4.1-5.8-2-8.8-3-9-3.1-4.7 12.3-8.8 24.9-12.4 37.9q-10.9 38.9-3.3 43.5c3.7 2.2 9.2 1.8 16.4-1.1 3.6-1.5 7.1-3.4 10.6-5.6-3.7-6.9-5-15.6-3.7-26.1 1.1-10 5-18.2 11.5-24.5 3-2.9 6.2-4.9 9.7-6 3.5-1.1 7-1.3 10.3-0.3 3.5 1 5.9 2.8 7.1 5.4 1.2 2.7 1.2 5.9-0.1 9.7-3 8.6-11.5 18.2-25.6 28.6-0.1 2.8 0.3 5.8 1.2 8.8 1.9 6.1 5.5 9.7 10.9 11 8.8 2 17.1-0.3 24.8-6.9 0.7-0.3 1.2-0.5 1.7-0.5 0.9 0 0.7 0.7-0.6 2.3zm-194.7-22.8c5.2-2.9 9.9-6.3 14.2-10.4 8.5-8.1 10.4-15.2 5.5-21.3-2.1-2.5-4.3-2.8-6.8-0.7-2.1 1.8-4.3 5.1-6.4 9.9-4.4 9.6-6.6 17.1-6.5 22.5zm156.5 0c5.2-2.9 10-6.3 14.2-10.4 8.5-8.1 10.4-15.2 5.5-21.3-2.1-2.5-4.3-2.8-6.8-0.7-2.1 1.8-4.3 5.1-6.4 9.9-4.3 9.6-6.5 17.1-6.5 22.5z"/>
			<path id="Layer" fill-rule="evenodd" class="s0" d="m403.9 218.3c-5.9 14.3-13.6 21.1-23.1 20.5-5.9-0.4-9.1-4.4-9.5-12.1q-0.4-11.1 6.3-18.6c3.7-4.1 7.3-6 10.6-5.6 1.2 0.2 2.2 0.6 3 1.4 0.7 0.7 1 1.4 0.9 2.2-2.9 20.4-6.3 30-10.1 28.7 3.2 1.1 7.2-1.9 12-8.8 5.1-7.2 8.5-15.3 10.3-24.4q4.8-25.4-9.3-24.6c-3.5 0.2-8.4 2.5-14.5 7-2 1.5-4.3 3.3-6.9 5.5-3.1 2.6-4.9 4.1-5.2 4.3-1 21.3-3.3 42.5-6.8 63.7-7 42.5-16.6 63.8-28.7 63.8-8.8 0-14-7.4-15.7-22.2-1.7-14.5 0.4-31.5 6.4-51.1 8-26.3 20.4-47.5 37.4-63.5-3.4-15.8-6.5-26.3-9.5-31.5-1.9-3.4-2.4-6.4-1.5-8.9 0.4-1 1.8-2.8 4-5.4 1.6-1.8 3.3-2.9 5.2-3.2 2.1-0.3 3.2 0.5 3.4 2.4 2.8 19 4.5 33.2 5 42.4 12-8.3 22.1-11.5 30.5-9.6q9.2 2.1 10.8 17.7c1 10-0.6 20.1-5 29.9zm-39.6-21l-2.2 1.3c-9.4 11.7-17.1 25.8-23.1 42.2-5.5 15.1-8.8 29.5-9.8 43.2-1 15 1.1 24.1 6.6 27.3 3.7 2.1 9.9-3.6 14.3-14.6 4.3-10.7 7.9-24.8 10.6-42.1q5.7-35.9 3.6-57.3z"/>
			<path id="Layer" fill-rule="evenodd" class="s0" d="m301.7 225.8c0.1 1.2-0.3 2.3-1.3 3.3-2.5 2.5-5.2 4.7-8.3 6.6-4.5 2.7-8.8 3.9-12.7 3.5-5.5-0.5-9.4-2.4-11.5-5.7-1.2-1.9-2-4.6-2.3-8.3-1.4 2.2-3.4 4.4-5.8 6.6-4.9 4.4-9.7 6.6-14.3 6.5-2.8 0-5.2-1-7.3-3-1.1-1.1-2-2.4-2.8-4-1.1 1-2.3 2-3.7 2.9-7.6 3.5-14.3 5.2-20.2 5.1-10.5-0.2-18.4-5.6-23.7-16.3-5.3-10.8-6.9-24.8-4.8-42.1 2.4-19.9 8.1-38.4 17.2-55.5 4.7-8.8 9.5-15.4 14.6-19.6 5.6-4.7 11.1-6.2 16.6-4.5 7.1 2.3 10.8 8 11 16.9 0.2 7.9-2.2 17.7-7.3 29.6-10.1 23.6-23.2 43.1-39.4 58.5 0.1 4.3 0.8 8.8 2.3 13.3 3 9 8.1 13.9 15.3 14.6 8.5 0.4 15.4-1.6 20.8-5.8-0.1-0.4-0.3-0.6-0.4-1-2.1-7.3-1.8-15.8 1.1-25.4 2.7-9.5 6.4-17.2 11.1-23.2 4.4-5.7 8.8-8.7 13.1-8.9 1.6 0 3.8 0.3 6.6 1.2 2.7 0.8 4.6 1.6 5.6 2.4 0.9 0.7 1.8 2.3 2.7 4.6 0.7 2.1 1.2 3.8 1.3 5.2 0.1 1.2 0 1.7-0.3 1.8-0.2 0.1-0.7-0.3-1.3-1.2-0.2-0.3-0.4-1-0.7-1.9-0.4-1.3-0.6-2.2-0.8-2.6-0.9-2.2-2.3-3.4-4-3.5-2.6-0.1-5.8 2.1-9.4 6.8-4.3 5.6-7.9 13.1-10.7 22.5-2.9 9.5-4 17-3.6 22.4 0.4 4.6 1.9 6.9 4.4 7 2 0 5-1.7 8.9-5.2 3.4-3.1 6.3-6.2 8.5-9.3 3.4-19 5.9-29.6 7.6-31.7 1.3-1.6 4-2.8 8.1-3.7 1.7-0.3 3-0.4 4-0.3q1.6 0.2 1.2 1.2c-1.7 3.9-3.7 10-6.2 18.1-3.5 11.5-5 19.3-4.6 23.4 0.5 4.4 1.5 7.2 3.2 8.6 1.2 0.9 2.9 1.2 5.1 0.7 2-0.5 4.5-1.7 7.7-3.6q5.1-3.3 7.2-6c0.7-0.9 1.2-1.5 1.7-1.6 0.4-0.2 0.6 0 0.5 0.6zm-105.9-29.8l-0.3 1.5c8.8-11.5 17.1-24 24.6-37.4 15.2-26.8 19.6-44.8 13.3-54.1-3.1-4.6-7.1-3.4-11.8 3.7-4.1 5.9-8.3 15.4-12.8 28.5-9.9 29-14.3 48.3-13 57.8z"/>
			<path id="Layer" class="s1" d="m766.7 109c-4.2 5.6-5 9.6-2.4 11.9 3 2.8 6.1 3.4 9.3 1.9 2.1-1 3.7-2.8 4.8-5.2 1.2-2.6 1.1-4.9-0.3-6.8-1.4-1.9-3.5-2.9-6.2-3.3-2.5-0.2-4.3 0.3-5.2 1.5z"/>
			<path id="Layer" class="s1" d="m897.1 230.1c-0.4 0.1-1 0.7-1.7 1.6q-2.1 2.7-7.2 6c-3.2 2-5.7 3.2-7.6 3.6-2.2 0.5-3.9 0.2-5.1-0.7-1.7-1.4-2.7-4.2-3.1-8.6-0.5-4.2 1.1-12 4.6-23.4 2.5-8.1 4.5-14.2 6.2-18.1q0.4-1-1.2-1.2c-1-0.1-2.3 0-4 0.3-4.1 0.9-6.8 2.1-8 3.7-1.7 2.1-4.3 12.7-7.7 31.8-2.2 3.1-5.1 6.2-8.5 9.4-3.9 3.5-6.9 5.2-8.9 5.2-2.5-0.1-4-2.4-4.4-7.1-0.5-5.4 0.7-12.9 3.5-22.5 2.8-9.4 6.4-16.9 10.7-22.6 3.6-4.7 6.8-7 9.4-6.9 1.7 0.1 3.1 1.3 4 3.5 0.2 0.5 0.4 1.3 0.8 2.7 0.3 1 0.5 1.6 0.7 1.9 0.6 0.9 1.1 1.3 1.4 1.2q0.4 0 0.3-1.8c-0.1-1.4-0.6-3.1-1.3-5.2-0.9-2.3-1.8-3.9-2.7-4.6-1-0.8-2.9-1.6-5.6-2.4-2.8-0.9-5-1.2-6.6-1.2q-6.5 0.3-13.2 9c-4.7 6-8.4 13.8-11.1 23.2-2.9 9.6-3.2 18.1-1.1 25.5 0.2 0.8 0.6 1.5 0.9 2.2-2 1.5-4.2 2.9-6.5 4q-7.4 3.3-12.9 2.1c-4.2-1-4.5-8.8-0.7-23.2 2.5-9.4 5.6-18.4 9.2-27 1.3-3.1 1.8-6 1.2-8.6-0.5-2.3-1.6-4.1-3.4-5.5-0.9-1-2.3-1.5-4.4-1.5-1.6 0-3.1 0.2-4.7 0.7-7.7 2.4-15.9 8.4-24.6 18.1-4.3 4.9-7.8 9.4-10.5 13.8 1-2.5 2.2-7.3 3.6-14.3 1.3-6.8 2-11 1.8-12.7-0.1-1.3-1.1-1.7-3.2-1.3-0.7 0.1-2.5 0.8-5.4 1.9-1.4 0.5-2.5 1.4-3.2 2.4-0.5 0.8-0.8 1.6-0.7 2.4 0.8 10.1 0.1 19.8-2.3 29-0.8 2.9-1.8 6.4-3.2 10.3-1.7 4.8-2.6 7.7-2.9 8.6-0.7 2.2-1.3 5.8-1.6 5.9-4 2-8 2.5-12 1.6-3.9-1-3.6-10.7 0.8-29.2 3.7-15.4 7-26.2 9.9-32.3 1.3-2.7 0.9-4.4-1.1-5.1-0.7-0.2-1.7-0.4-3-0.5-1.6-0.1-2.6-0.2-2.9-0.3-2.2-0.4-4.6 1-7 4.3-6.4 15.8-10.5 30.3-12.3 43.3-0.8 5.5-0.5 10.1 0.8 13.9-1.7 1.2-3.5 2.2-5.5 3.2q-7.4 3.3-12.9 2.1c-4.3-1-4.5-8.8-0.7-23.2q3.7-14.1 9.3-27c1.4-3.1 1.7-6 1.2-8.6-0.5-2.3-1.6-4.1-3.4-5.5-0.9-1-2.3-1.5-4.4-1.5-1.6 0-3.1 0.2-4.7 0.7-7.7 2.4-15.9 8.4-24.6 18.1-4.3 4.9-7.8 9.4-10.5 13.8 1-2.5 2.2-7.3 3.6-14.3 1.3-6.8 1.9-11 1.8-12.7-0.1-1.3-1.1-1.7-3.2-1.3-0.7 0.1-2.5 0.8-5.4 1.9-1.4 0.5-2.5 1.4-3.2 2.4-0.5 0.8-0.8 1.6-0.7 2.4 0.8 10.1 0.1 19.8-2.3 29-0.7 2.9-1.8 6.4-3.2 10.3-1.7 4.8-2.6 7.7-3 8.6-1.3 4.5-0.5 7 2.5 7.6 0.5 0.1 2.9-0.1 7.4-0.7 0.8-0.1 1.4-1 2-2.8 0.3-0.9 0.8-3.2 1.6-6.9 1.9-8.3 4.2-15.1 7-20.3 5.2-9.8 11.5-17.8 18.7-23.9q4.3-3.7 7.2-5.1c1.6-0.8 2.8-1.1 3.8-1.1l0.1 0.3c0.4 1.4 0.1 3.3-0.9 5.8-0.3 0.8-0.8 1.7-1.3 2.9q-1.2 2.3-1.2 2.4c-4.4 9.5-6.6 14.2-6.5 14-0.4 0.9-0.7 1.7-1.1 2.6-3 8.3-4.1 15.7-3.4 22.1 0.9 8.5 5.2 13 13 13.5 9.9 0.6 17.9-1.5 23.9-6.4 2.3 4.1 6 6.4 11.5 6.5 7.3 0.2 13.1-1 17.7-3.2 0.2 0.1 0.3 0.2 0.5 0.2 0.4 0.1 2.9-0.1 7.4-0.7 0.8-0.1 1.4-1 2-2.8 0.3-0.9 0.8-3.2 1.6-6.9 1.9-8.3 4.2-15.1 7-20.3 5.2-9.8 11.5-17.8 18.7-23.9 3-2.5 5.3-4.2 7.2-5.1 1.6-0.8 2.8-1.1 3.8-1.1l0.1 0.3c0.4 1.4 0.1 3.3-0.9 5.8-0.3 0.8-0.8 1.7-1.3 2.9q-1.2 2.3-1.2 2.4c-4.4 9.5-6.6 14.2-6.5 14-0.4 0.9-0.7 1.7-1.1 2.6-2.9 8.3-4.1 15.7-3.4 22.1 0.9 8.5 5.2 13 13 13.5 10.4 0.7 18.6-1.8 24.8-7.3 0.8 1.4 1.6 2.5 2.6 3.5 2.1 2 4.5 3 7.2 3.1 4.7 0.1 9.4-2.1 14.3-6.5 2.4-2.2 4.4-4.4 5.8-6.7 0.3 3.7 1.1 6.4 2.3 8.3 2.1 3.3 6 5.2 11.5 5.7 3.9 0.4 8.2-0.8 12.7-3.5 3.1-1.9 5.8-4.1 8.3-6.7 1-1 1.4-2.1 1.3-3.3 0.4-0.6 0.2-0.8-0.2-0.6z"/>
			<path id="Layer" class="s1" d="m540.2 109c-4.2 5.6-5 9.6-2.4 11.9 3 2.8 6.1 3.4 9.4 1.9 2.1-1 3.8-2.8 4.9-5.2 1.2-2.6 1.1-4.9-0.3-6.8-1.4-1.9-3.5-2.9-6.2-3.3q-4.1-0.3-5.4 1.5z"/>
			<path id="Layer" fill-rule="evenodd" class="s1" d="m625.7 233.6c-2.4 2.8-5.3 5.1-8.9 6.9-5.6 2.7-12.2 3.9-19.7 3.5-7.6-0.4-13.3-3.7-17.3-9.7-2 1.3-4.7 2.7-8.2 4.3-8 3.6-15.6 5.4-22.7 5.4-6.2 0-10.2-1.8-12.3-5.1-4.9 3.5-11.7 5.3-20.7 5.1-5.9-0.1-9.9-2.7-12.1-7.6-1.3 0.6-2.7 1.4-4.4 2.1-8 3.6-15.6 5.4-22.7 5.4-6.7 0-10.9-2.1-12.8-6-1.2 0.8-2.3 1.6-3.7 2.3-5.6 2.7-12.1 3.9-19.7 3.5-8.5-0.5-14.7-4.4-18.7-11.7-3.8-6.9-5.1-15.7-3.8-26.3 1.1-10 5-18.2 11.5-24.5 3-2.9 6.3-4.9 9.7-6 3.5-1.1 7-1.3 10.3-0.3 3.5 1 5.8 2.8 7.1 5.4 1.2 2.7 1.2 5.9-0.1 9.7-3 8.6-11.5 18.2-25.6 28.6-0.2 2.8 0.3 5.8 1.2 8.8 1.9 6.1 5.5 9.7 10.9 11 7 1.6 13.6 0.4 19.9-3.4-0.3-2.1-0.4-5.4-0.4-10 0-4.4 1.8-13.4 5.4-27.2 4.2-16 9-30.9 14.5-44.6-8.9-3.9-19.9-5.9-33.1-5.9-15.4 0-30.8 2.9-46.2 8.6-2.6 1-3.8 1-3.5 0 0.4-1 1.4-2 3.2-3.1 5.5-3.3 14.8-6.2 28-8.7 20-3.7 37.9-2.5 53.5 3.8 5.3-15.6 8.9-26.2 10.7-32 0.4-1.6 0.9-3.4 1.3-5.3 0.4-1.9 0.6-3 0.7-3.3 0.5-1.4 2-2.3 4.4-2.4q6.8-0.3 9.3 0c3.1 0.4 4 1.6 2.5 3.4-1.6 2.1-4.3 8.5-8.2 19.1-3.7 10.4-6.2 18.4-7.5 23.9 8.3 4.6 17.7 5.6 28.2 6.1 4.4 0.2 8.4-0.2 12.1-1.2 4-1.1 6.5-1.7 7.4-1.7 1.2 0 1.6 0.8 1.9 1.6 0.1 0.3 0.5 2.5 0.7 4.3 0 0.6 0.2 1.2 0.4 2 0.2 0.7 0.3 1.2 0.3 1.4 0 0.8-0.8 1.3-2.3 1.4-10.7 0.9-19.7 0.6-27.2-0.8-5-1-10.1-2.3-15.2-4.1-5.8-2-8.8-3-9-3.1-4.7 12.3-8.8 24.9-12.4 37.9q-10.9 38.8-3.3 43.5c3.7 2.2 9.2 1.8 16.4-1.1q3.8-1.5 7.5-3.6c-1-3.6-1.3-7.8-0.6-12.8 1.8-13.1 5.9-27.5 12.3-43.4 2.4-3.3 4.8-4.7 7-4.3q0.6 0.2 3 0.3c1.3 0.1 2.3 0.3 3 0.5 2 0.7 2.4 2.4 1.1 5.1q-4.3 9.3-9.9 32.4c-4.4 18.5-4.7 28.2-0.8 29.2 4 0.9 8 0.4 12-1.6 1.3-0.6 3.1-1.8 5.3-3.4-0.3-2-0.5-5.5-0.5-10.7 0-4.4 1.8-13.4 5.4-27.2 4.2-16 9-30.9 14.5-44.6-8.9-4-10.2-9.1-22.1-7.1-5.6 1-11.5-3.8-2.1-3.9 10.9-0.1 18.4 2.4 26.3 5.7 5.3-15.6 8.9-26.2 10.7-32 0.4-1.6 0.9-3.4 1.3-5.3 0.4-1.9 0.6-3 0.7-3.3 0.5-1.4 2-2.3 4.4-2.4q6.7-0.3 9.3 0c3.1 0.4 4 1.6 2.5 3.4-1.7 2.1-4.4 8.5-8.3 19.1-3.7 10.4-6.2 18.4-7.5 23.9 8.2 4.6 17.6 7.2 28.1 7.7 4.4 0.2 8.4-0.2 12.1-1.2 4-1.1 6.5-1.7 7.4-1.7q1.6 0 2.1 1.2c0.2 0.3 0.3 1.3 0.5 3.1 0 0.6 0.2 1.2 0.4 2 0.2 0.7 0.3 1.2 0.3 1.4 0 0.8-0.8 1.3-2.3 1.4-10.7 0.9-19.7 0.6-27.2-0.8-5-1-10.1-2.3-15.2-4.1-5.8-2-8.8-3-9-3.1-4.7 12.3-8.8 24.9-12.4 37.9q-11 38.9-3.3 43.5c3.7 2.2 9.2 1.8 16.4-1.1 3.6-1.5 7.1-3.4 10.6-5.6-3.7-6.9-5-15.6-3.7-26.1 1.1-10 5-18.2 11.5-24.5 3-2.9 6.2-4.9 9.7-6 3.5-1.1 7-1.3 10.3-0.3 3.5 1 5.9 2.8 7.1 5.4 1.2 2.7 1.2 5.9-0.1 9.7-3 8.6-11.5 18.2-25.6 28.6-0.1 2.8 0.3 5.8 1.2 8.8 1.9 6.1 5.5 9.7 10.9 11 8.8 2 17.1-0.3 24.8-6.9 0.7-0.3 1.2-0.5 1.7-0.5 0.9 0 0.7 0.8-0.6 2.3zm-194.8-22.8c5.2-2.9 9.9-6.3 14.2-10.4 8.5-8.1 10.4-15.2 5.5-21.3-2.1-2.5-4.3-2.8-6.8-0.7-2.1 1.8-4.3 5.1-6.4 9.9-4.3 9.6-6.5 17.1-6.5 22.5zm156.6 0c5.2-2.9 10-6.3 14.2-10.4 8.5-8.1 10.4-15.2 5.5-21.3-2.1-2.5-4.3-2.8-6.8-0.7-2.1 1.8-4.3 5.1-6.4 9.9-4.4 9.6-6.5 17.1-6.5 22.5z"/>
			<path id="Layer" fill-rule="evenodd" class="s1" d="m407.8 223.2c-5.9 14.3-13.6 21.1-23.1 20.5-5.9-0.4-9.1-4.4-9.5-12.1q-0.4-11.1 6.3-18.6c3.7-4.1 7.3-6 10.6-5.6 1.2 0.2 2.2 0.6 3 1.4 0.7 0.7 1 1.4 0.9 2.2-2.9 20.4-6.3 30-10.1 28.7 3.2 1.1 7.2-1.9 12-8.8 5.1-7.2 8.5-15.3 10.3-24.4q4.8-25.4-9.3-24.6c-3.5 0.2-8.4 2.5-14.5 7-2 1.4-4.3 3.3-6.9 5.5-3.1 2.6-4.9 4.1-5.2 4.3-1 21.3-3.3 42.5-6.8 63.7-7 42.5-16.6 63.8-28.7 63.8-8.8 0-14-7.4-15.7-22.2-1.7-14.5 0.4-31.5 6.4-51.1 8-26.3 20.4-47.5 37.4-63.5-3.4-15.8-6.5-26.3-9.5-31.5-1.9-3.4-2.4-6.4-1.5-8.9 0.4-1 1.8-2.8 4-5.4 1.6-1.8 3.3-2.9 5.2-3.2 2-0.3 3.2 0.5 3.4 2.4 2.8 19 4.5 33.2 5 42.4 12-8.3 22.1-11.5 30.5-9.6q9.2 2.1 10.8 17.7c1 10-0.6 20.1-5 29.9zm-39.6-21l-2.2 1.3c-9.4 11.7-17.1 25.8-23.1 42.2-5.5 15.1-8.8 29.5-9.8 43.2-1 15 1.1 24.1 6.6 27.3 3.7 2.1 9.9-3.6 14.3-14.6 4.3-10.7 7.9-24.8 10.6-42.1q5.7-35.9 3.6-57.3z"/>
			<path id="Layer" fill-rule="evenodd" class="s1" d="m305.6 230.7c0.1 1.2-0.3 2.3-1.3 3.3-2.5 2.5-5.2 4.7-8.3 6.6-4.5 2.7-8.8 3.9-12.7 3.5-5.5-0.5-9.4-2.4-11.5-5.7-1.2-1.9-2-4.6-2.3-8.3-1.4 2.2-3.4 4.4-5.8 6.6-4.9 4.4-9.7 6.6-14.3 6.5-2.8 0-5.2-1-7.3-3-1.1-1.1-2-2.4-2.8-4-1.1 1-2.3 2-3.7 2.9-7.6 3.5-14.3 5.2-20.2 5.1-10.5-0.2-18.4-5.6-23.7-16.3-5.3-10.8-6.9-24.8-4.8-42.1 2.4-19.9 8.1-38.4 17.2-55.5 4.7-8.8 9.5-15.4 14.6-19.6 5.6-4.7 11.1-6.2 16.6-4.5 7.1 2.3 10.8 8 11 16.9 0.2 7.9-2.2 17.7-7.3 29.6-10.1 23.6-23.2 43.1-39.4 58.5 0.1 4.3 0.8 8.8 2.3 13.3 3 9 8.1 13.9 15.3 14.6 8.5 0.4 15.4-1.6 20.8-5.8-0.1-0.4-0.3-0.6-0.4-1-2.1-7.3-1.8-15.8 1.1-25.4 2.7-9.5 6.4-17.2 11.1-23.2 4.4-5.7 8.8-8.7 13.1-8.9 1.6 0 3.8 0.3 6.6 1.2 2.7 0.8 4.6 1.6 5.6 2.4 0.9 0.7 1.8 2.3 2.7 4.6 0.7 2.1 1.2 3.8 1.3 5.2 0.1 1.2 0 1.7-0.3 1.8-0.2 0.1-0.7-0.3-1.3-1.2-0.2-0.3-0.4-1-0.7-1.9-0.4-1.3-0.6-2.2-0.8-2.6-0.9-2.2-2.3-3.4-4-3.5-2.6-0.1-5.8 2.1-9.4 6.8-4.3 5.6-7.9 13.1-10.7 22.5-2.9 9.5-4 17-3.6 22.4 0.4 4.6 1.9 6.9 4.4 7 2 0 5-1.7 8.9-5.2 3.4-3.1 6.3-6.2 8.5-9.3 3.4-19 5.9-29.6 7.6-31.7 1.3-1.6 4-2.8 8.1-3.7 1.7-0.3 3-0.4 4-0.3q1.7 0.2 1.2 1.2c-1.7 3.9-3.7 10-6.2 18.1-3.5 11.5-5 19.3-4.6 23.4 0.5 4.4 1.5 7.2 3.2 8.6 1.2 0.9 2.9 1.2 5.1 0.7 2-0.5 4.5-1.7 7.7-3.6q5.1-3.3 7.2-6c0.7-0.9 1.2-1.5 1.7-1.6 0.4-0.1 0.6 0 0.5 0.6zm-105.9-29.8l-0.3 1.5c8.8-11.5 17.1-24 24.6-37.4 15.2-26.8 19.6-44.8 13.3-54.1-3.1-4.6-7.1-3.4-11.8 3.7-4.1 5.9-8.3 15.4-12.8 28.5-9.9 29-14.3 48.3-13 57.8z"/>
		</g>
		<g id="Layer">
			<path id="Layer" class="s0" d="m762.8 430.9c-4.2 5.6-5 9.6-2.4 11.9 3 2.8 6.1 3.4 9.3 1.9 2.1-1 3.7-2.8 4.8-5.2 1.2-2.6 1.1-4.9-0.3-6.8-1.4-1.9-3.5-2.9-6.2-3.3-2.5-0.2-4.3 0.3-5.2 1.5z"/>
			<path id="Layer" class="s0" d="m893.3 551.9c-0.4 0.1-1 0.7-1.7 1.6q-2.1 2.7-7.2 6c-3.2 2-5.7 3.2-7.6 3.6-2.2 0.5-3.9 0.2-5.1-0.7-1.7-1.4-2.7-4.2-3.1-8.6-0.5-4.2 1.1-12 4.6-23.4 2.5-8.1 4.5-14.2 6.2-18.1q0.4-1-1.2-1.2c-1-0.1-2.3 0-4 0.3-4.1 0.9-6.8 2.1-8 3.7-1.7 2.1-4.3 12.7-7.7 31.8-2.2 3.1-5.1 6.2-8.5 9.4-3.9 3.5-6.9 5.2-8.9 5.2-2.5-0.1-4-2.4-4.4-7.1-0.5-5.4 0.7-12.9 3.5-22.5 2.8-9.4 6.4-16.9 10.7-22.6 3.6-4.7 6.8-7 9.4-6.9 1.7 0.1 3.1 1.3 4 3.5 0.2 0.5 0.4 1.3 0.8 2.7 0.3 1 0.5 1.6 0.7 1.9 0.6 0.9 1.1 1.3 1.3 1.2q0.4 0 0.3-1.8c-0.1-1.4-0.6-3.1-1.3-5.2-0.9-2.3-1.8-3.9-2.7-4.6-1-0.8-2.9-1.6-5.6-2.4-2.8-0.9-5-1.2-6.6-1.2q-6.5 0.3-13.2 9c-4.7 6-8.4 13.8-11.1 23.2-2.9 9.6-3.2 18.1-1.1 25.5 0.2 0.8 0.6 1.5 0.9 2.2-2 1.5-4.2 2.9-6.5 4q-7.4 3.3-12.9 2.1c-4.2-1-4.5-8.8-0.7-23.2 2.5-9.4 5.6-18.4 9.2-27 1.4-3.1 1.8-6 1.2-8.6-0.5-2.3-1.6-4.1-3.4-5.5-0.9-1-2.3-1.5-4.4-1.5-1.6 0-3.1 0.2-4.7 0.7-7.7 2.4-15.9 8.4-24.6 18.1-4.3 4.9-7.8 9.4-10.5 13.8 1-2.5 2.2-7.3 3.6-14.3 1.3-6.8 2-11 1.8-12.7-0.1-1.3-1.1-1.7-3.2-1.3-0.7 0.1-2.5 0.8-5.4 1.9-1.4 0.5-2.5 1.4-3.2 2.4-0.5 0.8-0.8 1.6-0.7 2.4 0.8 10.1 0.1 19.8-2.3 29-0.8 2.9-1.8 6.4-3.2 10.3-1.7 4.8-2.6 7.7-2.9 8.6-0.7 2.2-1.3 5.8-1.6 5.9-4 2-8 2.5-12 1.6-3.9-1-3.6-10.7 0.8-29.2 3.7-15.4 7-26.2 9.9-32.3 1.3-2.7 0.9-4.4-1.1-5.1-0.7-0.2-1.7-0.4-3-0.5-1.6-0.1-2.6-0.2-2.9-0.3-2.2-0.4-4.6 1-7 4.3-6.4 15.8-10.5 30.3-12.3 43.3-0.8 5.5-0.5 10.1 0.8 13.9-1.7 1.2-3.5 2.2-5.5 3.2q-7.4 3.3-12.9 2.1c-4.3-1-4.5-8.8-0.7-23.2q3.7-14.1 9.3-27c1.3-3.1 1.7-6 1.2-8.6-0.5-2.3-1.6-4.1-3.4-5.5-0.9-1-2.3-1.5-4.4-1.5-1.6 0-3.1 0.2-4.7 0.7-7.7 2.4-15.9 8.4-24.6 18.1-4.3 4.9-7.8 9.4-10.5 13.8 1-2.5 2.2-7.3 3.6-14.3 1.3-6.8 1.9-11 1.8-12.7-0.1-1.3-1.1-1.7-3.2-1.3-0.7 0.1-2.5 0.8-5.4 1.9-1.4 0.5-2.5 1.4-3.2 2.4-0.5 0.8-0.8 1.6-0.7 2.4 0.8 10.1 0.1 19.8-2.3 29-0.7 2.9-1.8 6.4-3.2 10.3-1.7 4.8-2.6 7.7-3 8.6-1.3 4.5-0.5 7 2.5 7.6 0.5 0.1 2.9-0.1 7.4-0.7 0.8-0.1 1.4-1 2-2.8 0.3-0.9 0.8-3.2 1.6-6.9 1.9-8.3 4.2-15.1 7-20.3 5.2-9.8 11.5-17.8 18.7-23.9q4.3-3.8 7.2-5.1c1.6-0.8 2.8-1.1 3.8-1.1l0.1 0.3c0.4 1.4 0.1 3.3-0.9 5.8-0.3 0.8-0.8 1.7-1.3 2.9q-1.2 2.2-1.2 2.4c-4.4 9.5-6.6 14.2-6.5 14-0.4 0.9-0.7 1.7-1.1 2.6-3 8.3-4.1 15.7-3.4 22.1 0.9 8.5 5.2 13 13 13.5 9.9 0.6 17.9-1.5 23.9-6.4 2.3 4.1 6 6.4 11.5 6.5 7.3 0.2 13.1-1 17.7-3.2 0.2 0.1 0.3 0.2 0.5 0.2 0.4 0.1 2.9-0.1 7.4-0.7 0.8-0.1 1.4-1 2-2.8 0.3-0.9 0.8-3.2 1.6-6.9 1.9-8.3 4.2-15.1 7-20.3 5.2-9.8 11.5-17.8 18.7-23.9 3-2.5 5.3-4.2 7.2-5.1 1.6-0.8 2.8-1.1 3.8-1.1l0.1 0.3c0.4 1.4 0.1 3.3-0.9 5.8-0.3 0.8-0.8 1.7-1.3 2.9q-1.2 2.2-1.2 2.4c-4.4 9.5-6.6 14.2-6.5 14-0.4 0.9-0.7 1.7-1.1 2.6-2.9 8.3-4.1 15.7-3.4 22.1 0.9 8.5 5.2 13 13 13.5 10.4 0.7 18.6-1.8 24.8-7.3 0.8 1.4 1.6 2.5 2.6 3.5 2.1 2 4.5 3 7.2 3.1 4.7 0.1 9.4-2.1 14.3-6.5 2.4-2.2 4.4-4.4 5.8-6.7 0.3 3.7 1.1 6.4 2.3 8.3 2.1 3.3 6 5.2 11.5 5.7 3.9 0.4 8.2-0.8 12.7-3.5 3.1-1.9 5.8-4.1 8.3-6.7 1-1 1.4-2.1 1.3-3.3 0.4-0.6 0.2-0.7-0.1-0.6z"/>
			<path id="Layer" class="s0" d="m536.3 430.9c-4.2 5.6-5 9.6-2.4 11.9 3 2.8 6.1 3.4 9.4 1.9 2.1-1 3.8-2.8 4.9-5.2 1.2-2.6 1.1-4.9-0.3-6.8-1.4-1.9-3.5-2.9-6.2-3.3q-4-0.3-5.4 1.5z"/>
			<path id="Layer" fill-rule="evenodd" class="s0" d="m621.8 555.5c-2.4 2.8-5.3 5.1-8.9 6.9-5.6 2.7-12.2 3.9-19.7 3.5-7.6-0.4-13.3-3.7-17.3-9.7-2 1.3-4.7 2.7-8.2 4.3-8 3.6-15.6 5.4-22.7 5.4-6.2 0-10.2-1.8-12.3-5.1-4.9 3.5-11.7 5.3-20.7 5.1-5.9-0.1-9.9-2.7-12.1-7.6-1.3 0.6-2.7 1.4-4.4 2.1-8 3.6-15.6 5.4-22.7 5.4-6.7 0-10.9-2.1-12.8-6-1.2 0.8-2.3 1.6-3.7 2.3-5.6 2.7-12.1 3.9-19.7 3.5-8.5-0.5-14.7-4.4-18.7-11.7-3.8-6.9-5.1-15.7-3.8-26.3 1.1-10 5-18.2 11.5-24.5 3-2.9 6.3-4.9 9.7-6 3.5-1.1 7-1.3 10.3-0.3 3.5 1 5.8 2.8 7.1 5.4 1.2 2.7 1.2 5.9-0.1 9.7-3 8.6-11.5 18.2-25.6 28.6-0.2 2.8 0.3 5.8 1.2 8.8 1.9 6.1 5.5 9.7 10.9 11 7 1.6 13.6 0.4 19.9-3.4-0.3-2.1-0.4-5.4-0.4-10 0-4.4 1.8-13.4 5.4-27.2 4.2-16 9-30.9 14.5-44.6-8.9-3.9-19.9-5.9-33.1-5.9-15.4 0-30.8 2.9-46.2 8.6-2.6 1-3.8 1-3.5 0 0.4-1 1.4-2 3.2-3.1 5.5-3.3 14.8-6.2 28-8.7 20-3.7 37.9-2.5 53.5 3.8 5.3-15.6 8.9-26.2 10.7-32 0.4-1.6 0.9-3.4 1.3-5.3 0.4-1.9 0.6-3 0.7-3.3 0.5-1.4 2-2.3 4.4-2.4q6.8-0.3 9.3 0c3.1 0.4 4 1.6 2.5 3.4-1.6 2.1-4.3 8.5-8.2 19.1-3.7 10.4-6.2 18.4-7.5 23.9 8.3 4.6 17.7 5.6 28.2 6.1 4.4 0.2 8.4-0.2 12.1-1.2 4-1.1 6.5-1.7 7.4-1.7 1.2 0 1.6 0.8 1.9 1.6 0.1 0.3 0.5 2.5 0.7 4.3 0 0.6 0.2 1.2 0.4 2 0.2 0.7 0.3 1.2 0.3 1.4 0 0.8-0.8 1.3-2.3 1.4-10.7 0.9-19.7 0.6-27.2-0.8-5-1-10.1-2.3-15.2-4.1-5.8-2-8.8-3-9-3.1-4.7 12.3-8.8 24.9-12.4 37.9q-10.9 38.9-3.3 43.5c3.7 2.2 9.2 1.8 16.4-1.1q3.8-1.5 7.5-3.6c-1-3.6-1.3-7.8-0.6-12.8 1.8-13.1 5.9-27.5 12.3-43.4 2.4-3.3 4.8-4.7 7-4.3q0.6 0.2 3 0.3c1.3 0.1 2.3 0.3 3 0.5 2 0.7 2.4 2.4 1.1 5.1q-4.3 9.3-9.9 32.4c-4.4 18.5-4.7 28.2-0.8 29.2 4 0.9 8 0.4 12-1.6 1.3-0.6 3.1-1.8 5.3-3.4-0.3-2-0.5-5.5-0.5-10.7 0-4.4 1.8-13.4 5.4-27.2 4.2-16 9-30.9 14.5-44.6-8.9-4-10.2-9.1-22.1-7.1-5.6 1-11.5-3.8-2.1-3.9 10.9-0.1 18.4 2.4 26.3 5.7 5.3-15.6 8.9-26.2 10.7-32 0.4-1.6 0.9-3.4 1.3-5.3 0.4-1.9 0.6-3 0.7-3.3 0.5-1.4 2-2.3 4.4-2.4q6.8-0.3 9.3 0c3.1 0.4 4 1.6 2.5 3.4-1.7 2.1-4.4 8.5-8.3 19.1-3.7 10.4-6.2 18.4-7.5 23.9 8.2 4.6 17.6 7.2 28.1 7.7 4.4 0.2 8.4-0.2 12.1-1.2 4-1.1 6.5-1.7 7.4-1.7q1.7 0 2.1 1.2c0.2 0.3 0.3 1.3 0.5 3.1 0 0.6 0.2 1.2 0.4 2 0.2 0.7 0.3 1.2 0.3 1.4 0 0.8-0.8 1.3-2.3 1.4-10.7 0.9-19.7 0.6-27.2-0.8-5-1-10.1-2.3-15.2-4.1-5.8-2-8.8-3-9-3.1-4.7 12.3-8.8 24.9-12.4 37.9q-10.9 38.9-3.3 43.5c3.7 2.2 9.2 1.8 16.4-1.1 3.6-1.5 7.1-3.4 10.6-5.6-3.7-6.9-5-15.6-3.7-26.1 1.1-10 5-18.2 11.5-24.5 3-2.9 6.2-4.9 9.7-6 3.5-1.1 7-1.3 10.3-0.3 3.5 1 5.9 2.8 7.1 5.4 1.2 2.7 1.2 5.9-0.1 9.7-3 8.6-11.5 18.2-25.6 28.6-0.1 2.8 0.3 5.8 1.2 8.8 1.9 6.1 5.5 9.7 10.9 11 8.8 2 17.1-0.3 24.8-6.9 0.7-0.3 1.2-0.5 1.7-0.5 0.9 0 0.7 0.7-0.6 2.3zm-194.7-22.9c5.2-2.9 9.9-6.3 14.2-10.4 8.5-8.1 10.4-15.2 5.5-21.3-2.1-2.5-4.3-2.8-6.8-0.7-2.1 1.8-4.3 5.1-6.4 9.9-4.4 9.7-6.6 17.2-6.5 22.5zm156.5 0c5.2-2.9 10-6.3 14.2-10.4 8.5-8.1 10.4-15.2 5.5-21.3-2.1-2.5-4.3-2.8-6.8-0.7-2.1 1.8-4.3 5.1-6.4 9.9-4.3 9.7-6.5 17.2-6.5 22.5z"/>
			<path id="Layer" fill-rule="evenodd" class="s0" d="m403.9 545.1c-5.9 14.3-13.6 21.1-23.1 20.5-5.9-0.4-9.1-4.4-9.5-12.1q-0.4-11.1 6.3-18.6c3.7-4.1 7.3-6 10.6-5.6 1.2 0.2 2.2 0.6 3 1.4 0.7 0.7 1 1.4 0.9 2.2-2.9 20.4-6.3 30-10.1 28.7 3.2 1.1 7.2-1.9 12-8.8 5.1-7.2 8.5-15.3 10.3-24.4q4.8-25.3-9.3-24.6c-3.5 0.2-8.4 2.5-14.5 7-2 1.5-4.3 3.3-6.9 5.5-3.1 2.6-4.9 4.1-5.2 4.3-1 21.3-3.3 42.5-6.8 63.7-7 42.5-16.6 63.8-28.7 63.8-8.8 0-14-7.4-15.7-22.2-1.7-14.5 0.4-31.5 6.4-51.1 8-26.3 20.4-47.5 37.4-63.5-3.4-15.8-6.5-26.3-9.5-31.5-1.9-3.4-2.4-6.4-1.5-8.9 0.4-1 1.8-2.8 4-5.4 1.6-1.8 3.3-2.9 5.2-3.2 2.1-0.3 3.2 0.5 3.4 2.4 2.8 19 4.5 33.2 5 42.4 12-8.3 22.1-11.5 30.5-9.6q9.2 2.1 10.8 17.7c1 10-0.6 20.1-5 29.9zm-39.6-21l-2.2 1.3c-9.4 11.7-17.1 25.8-23.1 42.2-5.5 15.1-8.8 29.5-9.8 43.2-1 15 1.1 24.1 6.6 27.3 3.7 2.1 9.9-3.6 14.3-14.6 4.3-10.7 7.9-24.8 10.6-42.1q5.7-35.9 3.6-57.3z"/>
			<path id="Layer" fill-rule="evenodd" class="s0" d="m301.7 552.5c0.1 1.2-0.3 2.3-1.3 3.3-2.5 2.5-5.2 4.7-8.3 6.6-4.5 2.7-8.8 3.9-12.7 3.5-5.5-0.5-9.4-2.4-11.5-5.7-1.2-1.9-2-4.6-2.3-8.3-1.4 2.2-3.4 4.4-5.8 6.6-4.9 4.4-9.7 6.6-14.3 6.5-2.8 0-5.2-1-7.3-3-1.1-1.1-2-2.4-2.8-4-1.1 1-2.3 2-3.7 2.9-7.6 3.5-14.3 5.2-20.2 5.1-10.5-0.2-18.4-5.6-23.7-16.3-5.3-10.8-6.9-24.8-4.8-42.1 2.4-19.9 8.1-38.4 17.2-55.5 4.7-8.8 9.5-15.4 14.6-19.6 5.6-4.7 11.1-6.2 16.6-4.5 7.1 2.3 10.8 8 11 16.9 0.2 7.9-2.2 17.7-7.3 29.6-10.1 23.6-23.2 43.1-39.4 58.5 0.1 4.3 0.8 8.8 2.3 13.3 3 9 8.1 13.9 15.3 14.6 8.5 0.4 15.4-1.6 20.8-5.8-0.1-0.4-0.3-0.6-0.4-1-2.1-7.3-1.8-15.8 1.1-25.4 2.7-9.5 6.4-17.2 11.1-23.2 4.4-5.7 8.8-8.7 13.1-8.9 1.6 0 3.8 0.3 6.6 1.2 2.7 0.8 4.6 1.6 5.6 2.4 0.9 0.7 1.8 2.3 2.7 4.6 0.7 2.1 1.2 3.8 1.3 5.2 0.1 1.2 0 1.7-0.3 1.8-0.2 0.1-0.7-0.3-1.3-1.2-0.2-0.3-0.4-1-0.7-1.9-0.4-1.3-0.6-2.2-0.8-2.6-0.9-2.2-2.3-3.4-4-3.5-2.6-0.1-5.8 2.1-9.4 6.8-4.3 5.6-7.9 13.1-10.7 22.5-2.9 9.5-4 17-3.6 22.4 0.4 4.6 1.9 6.9 4.4 7 2 0 5-1.7 8.9-5.2 3.4-3.1 6.3-6.2 8.5-9.3 3.4-19 5.9-29.6 7.6-31.7 1.3-1.6 4-2.8 8.1-3.7 1.7-0.3 3-0.4 4-0.3q1.6 0.2 1.2 1.2c-1.7 3.9-3.7 10-6.2 18.1-3.5 11.5-5 19.3-4.6 23.4 0.5 4.4 1.5 7.2 3.2 8.6 1.2 0.9 2.9 1.2 5.1 0.7 2-0.5 4.5-1.7 7.7-3.6q5.1-3.3 7.2-6c0.7-0.9 1.2-1.5 1.7-1.6 0.4-0.1 0.6 0.1 0.5 0.6zm-105.9-29.7l-0.3 1.5c8.8-11.5 17.1-24 24.6-37.4 15.2-26.8 19.6-44.8 13.3-54.1-3.1-4.6-7.1-3.4-11.8 3.7-4.1 5.9-8.3 15.4-12.8 28.5-9.9 29-14.3 48.3-13 57.8z"/>
			<path id="Layer" class="s2" d="m766.7 435.8c-4.2 5.6-5 9.6-2.4 11.9 3 2.8 6.1 3.4 9.3 1.9 2.1-1 3.7-2.8 4.8-5.2 1.2-2.6 1.1-4.9-0.3-6.8-1.4-1.9-3.5-2.9-6.2-3.3-2.5-0.2-4.3 0.3-5.2 1.5z"/>
			<path id="Layer" class="s2" d="m897.1 556.8c-0.4 0.1-1 0.7-1.7 1.6q-2.1 2.7-7.2 6c-3.2 2-5.7 3.2-7.6 3.6-2.2 0.5-3.9 0.2-5.1-0.7-1.7-1.4-2.7-4.2-3.1-8.6-0.5-4.2 1.1-12 4.6-23.4 2.5-8.1 4.5-14.2 6.2-18.1q0.4-1.1-1.2-1.2c-1-0.1-2.3 0-4 0.3-4.1 0.9-6.8 2.1-8 3.7-1.7 2.1-4.3 12.7-7.7 31.8-2.2 3.1-5.1 6.2-8.5 9.4-3.9 3.5-6.9 5.2-8.9 5.2-2.5-0.1-4-2.4-4.4-7.1-0.5-5.4 0.7-12.9 3.5-22.5 2.8-9.4 6.4-16.9 10.7-22.6 3.6-4.7 6.8-7 9.4-6.9 1.7 0.1 3.1 1.3 4 3.5 0.2 0.5 0.4 1.3 0.8 2.7 0.3 1 0.5 1.6 0.7 1.9 0.6 0.9 1.1 1.3 1.4 1.2q0.4 0 0.3-1.8c-0.1-1.4-0.6-3.1-1.3-5.2-0.9-2.3-1.8-3.9-2.7-4.6-1-0.8-2.9-1.6-5.6-2.4-2.8-0.9-5-1.2-6.6-1.2q-6.5 0.3-13.2 9c-4.7 6-8.4 13.8-11.1 23.2-2.9 9.6-3.2 18.1-1.1 25.5 0.2 0.8 0.6 1.5 0.9 2.2-2 1.5-4.2 2.9-6.5 4q-7.4 3.3-12.9 2.1c-4.2-1-4.5-8.8-0.7-23.2 2.5-9.4 5.6-18.4 9.2-27 1.3-3.1 1.8-6 1.2-8.6-0.5-2.3-1.6-4.1-3.4-5.5-0.9-1-2.3-1.5-4.4-1.5-1.6 0-3.1 0.2-4.7 0.7-7.7 2.4-15.9 8.4-24.6 18.1-4.3 4.9-7.8 9.4-10.5 13.8 1-2.5 2.2-7.3 3.6-14.3 1.3-6.8 2-11 1.8-12.7-0.1-1.3-1.1-1.7-3.2-1.3-0.7 0.1-2.5 0.8-5.4 1.9-1.4 0.5-2.5 1.4-3.2 2.4-0.5 0.8-0.8 1.6-0.7 2.4 0.8 10.1 0.1 19.8-2.3 29-0.8 2.9-1.8 6.4-3.2 10.3-1.7 4.8-2.6 7.7-2.9 8.6-0.7 2.2-1.3 5.8-1.6 5.9-4 2-8 2.5-12 1.6-3.9-1-3.6-10.7 0.8-29.2 3.7-15.4 7-26.2 9.9-32.3 1.3-2.7 0.9-4.4-1.1-5.1-0.7-0.2-1.7-0.4-3-0.5-1.6-0.1-2.6-0.2-2.9-0.3-2.2-0.4-4.6 1-7 4.3-6.4 15.8-10.5 30.3-12.3 43.3-0.8 5.5-0.5 10.1 0.8 13.9-1.7 1.2-3.5 2.2-5.5 3.2q-7.4 3.3-12.9 2.1c-4.3-1-4.5-8.8-0.7-23.2q3.7-14.1 9.3-27c1.4-3.1 1.7-6 1.2-8.6-0.5-2.3-1.6-4.1-3.4-5.5-0.9-1-2.3-1.5-4.4-1.5-1.6 0-3.1 0.2-4.7 0.7-7.7 2.4-15.9 8.4-24.6 18.1-4.3 4.9-7.8 9.4-10.5 13.8 1-2.5 2.2-7.3 3.6-14.3 1.3-6.8 1.9-11 1.8-12.7-0.1-1.3-1.1-1.7-3.2-1.3-0.7 0.1-2.5 0.8-5.4 1.9-1.4 0.5-2.5 1.4-3.2 2.4-0.5 0.8-0.8 1.6-0.7 2.4 0.8 10.1 0.1 19.8-2.3 29-0.7 2.9-1.8 6.4-3.2 10.3-1.7 4.8-2.6 7.7-3 8.6-1.3 4.5-0.5 7 2.5 7.6 0.5 0.1 2.9-0.1 7.4-0.7 0.8-0.1 1.4-1 2-2.8 0.3-0.9 0.8-3.2 1.6-6.9 1.9-8.3 4.2-15.1 7-20.3 5.2-9.8 11.5-17.8 18.7-23.9q4.3-3.8 7.2-5.1c1.6-0.8 2.8-1.1 3.8-1.1l0.1 0.3c0.4 1.4 0.1 3.3-0.9 5.8-0.3 0.8-0.8 1.7-1.3 2.9q-1.2 2.2-1.2 2.4c-4.4 9.5-6.6 14.2-6.5 14-0.4 0.9-0.7 1.7-1.1 2.6-3 8.3-4.1 15.7-3.4 22.1 0.9 8.5 5.2 13 13 13.5 9.9 0.6 17.9-1.5 23.9-6.4 2.3 4.1 6 6.4 11.5 6.5 7.3 0.2 13.1-1 17.7-3.2 0.2 0.1 0.3 0.2 0.5 0.2 0.4 0.1 2.9-0.1 7.4-0.7 0.8-0.1 1.4-1 2-2.8 0.3-0.9 0.8-3.2 1.6-6.9 1.9-8.3 4.2-15.1 7-20.3 5.2-9.8 11.5-17.8 18.7-23.9 3-2.5 5.3-4.2 7.2-5.1 1.6-0.8 2.8-1.1 3.8-1.1l0.1 0.3c0.4 1.4 0.1 3.3-0.9 5.8-0.3 0.8-0.8 1.7-1.3 2.9q-1.2 2.2-1.2 2.4c-4.4 9.5-6.6 14.2-6.5 14-0.4 0.9-0.7 1.7-1.1 2.6-2.9 8.3-4.1 15.7-3.4 22.1 0.9 8.5 5.2 13 13 13.5 10.4 0.7 18.6-1.8 24.8-7.3 0.8 1.4 1.6 2.5 2.6 3.5 2.1 2 4.5 3 7.2 3.1 4.7 0.1 9.4-2.1 14.3-6.5 2.4-2.2 4.4-4.4 5.8-6.7 0.3 3.7 1.1 6.4 2.3 8.3 2.1 3.3 6 5.2 11.5 5.7 3.9 0.4 8.2-0.8 12.7-3.5 3.1-1.9 5.8-4.1 8.3-6.7 1-1 1.4-2.1 1.3-3.3 0.4-0.5 0.2-0.7-0.2-0.6z"/>
			<path id="Layer" class="s2" d="m540.2 435.8c-4.2 5.6-5 9.6-2.4 11.9 3 2.8 6.1 3.4 9.4 1.9 2.1-1 3.8-2.8 4.9-5.2 1.2-2.6 1.1-4.9-0.3-6.8-1.4-1.9-3.5-2.9-6.2-3.3q-4.1-0.3-5.4 1.5z"/>
			<path id="Layer" fill-rule="evenodd" class="s2" d="m625.7 560.4c-2.4 2.8-5.3 5.1-8.9 6.9-5.6 2.7-12.2 3.9-19.7 3.5-7.6-0.4-13.3-3.7-17.3-9.7-2 1.3-4.7 2.7-8.2 4.3-8 3.6-15.6 5.4-22.7 5.4-6.2 0-10.2-1.8-12.3-5.1-4.9 3.5-11.7 5.3-20.7 5.1-5.9-0.1-9.9-2.7-12.1-7.6-1.3 0.6-2.7 1.4-4.4 2.1-8 3.6-15.6 5.4-22.7 5.4-6.7 0-10.9-2.1-12.8-6-1.2 0.8-2.3 1.6-3.7 2.3-5.6 2.7-12.1 3.9-19.7 3.5-8.5-0.5-14.7-4.4-18.7-11.7-3.8-6.9-5.1-15.7-3.8-26.3 1.1-10 5-18.2 11.5-24.5 3-2.9 6.3-4.9 9.7-6 3.5-1.1 7-1.3 10.3-0.3 3.5 1 5.8 2.8 7.1 5.4 1.2 2.7 1.2 5.9-0.1 9.7-3 8.6-11.5 18.2-25.6 28.6-0.2 2.8 0.3 5.8 1.2 8.8 1.9 6.1 5.5 9.7 10.9 11 7 1.6 13.6 0.4 19.9-3.4-0.3-2.1-0.4-5.4-0.4-10 0-4.4 1.8-13.4 5.4-27.2 4.2-16 9-30.9 14.5-44.6-8.9-3.9-19.9-5.9-33.1-5.9-15.4 0-30.8 2.9-46.2 8.6-2.6 1-3.8 1-3.5 0 0.4-1 1.4-2 3.2-3.1 5.5-3.3 14.8-6.2 28-8.7 20-3.7 37.9-2.5 53.5 3.8 5.3-15.6 8.9-26.2 10.7-32 0.4-1.6 0.9-3.4 1.3-5.3 0.4-1.9 0.6-3 0.7-3.3 0.5-1.4 2-2.3 4.4-2.4q6.8-0.3 9.3 0c3.1 0.4 4 1.6 2.5 3.4-1.6 2.1-4.3 8.5-8.2 19.1-3.7 10.4-6.2 18.4-7.5 23.9 8.3 4.6 17.7 5.6 28.2 6.1 4.4 0.2 8.4-0.2 12.1-1.2 4-1.1 6.5-1.7 7.4-1.7 1.2 0 1.6 0.8 1.9 1.6 0.1 0.3 0.5 2.5 0.7 4.3 0 0.6 0.2 1.2 0.4 2 0.2 0.7 0.3 1.2 0.3 1.4 0 0.8-0.8 1.3-2.3 1.4-10.7 0.9-19.7 0.6-27.2-0.8-5-1-10.1-2.3-15.2-4.1-5.8-2-8.8-3-9-3.1-4.7 12.3-8.8 24.9-12.4 37.9q-10.9 38.9-3.3 43.5c3.7 2.2 9.2 1.8 16.4-1.1q3.8-1.5 7.5-3.6c-1-3.6-1.3-7.8-0.6-12.8 1.8-13.1 5.9-27.5 12.3-43.4 2.4-3.3 4.8-4.7 7-4.3q0.6 0.2 3 0.3c1.3 0.1 2.3 0.3 3 0.5 2 0.7 2.4 2.4 1.1 5.1q-4.3 9.3-9.9 32.4c-4.4 18.5-4.7 28.2-0.8 29.2 4 0.9 8 0.4 12-1.6 1.3-0.6 3.1-1.8 5.3-3.4-0.3-2-0.5-5.5-0.5-10.7 0-4.4 1.8-13.4 5.4-27.2 4.2-16 9-30.9 14.5-44.6-8.9-4-10.2-9.1-22.1-7.1-5.6 1-11.5-3.8-2.1-3.9 10.9-0.1 18.4 2.4 26.3 5.7 5.3-15.6 8.9-26.2 10.7-32 0.4-1.6 0.9-3.4 1.3-5.3 0.4-1.9 0.6-3 0.7-3.3 0.5-1.4 2-2.3 4.4-2.4q6.7-0.3 9.3 0c3.1 0.4 4 1.6 2.5 3.4-1.7 2.1-4.4 8.5-8.3 19.1-3.7 10.4-6.2 18.4-7.5 23.9 8.2 4.6 17.6 7.2 28.1 7.7 4.4 0.2 8.4-0.2 12.1-1.2 4-1.1 6.5-1.7 7.4-1.7q1.6 0 2.1 1.2c0.2 0.3 0.3 1.3 0.5 3.1 0 0.6 0.2 1.2 0.4 2 0.2 0.7 0.3 1.2 0.3 1.4 0 0.8-0.8 1.3-2.3 1.4-10.7 0.9-19.7 0.6-27.2-0.8-5-1-10.1-2.3-15.2-4.1-5.8-2-8.8-3-9-3.1-4.7 12.3-8.8 24.9-12.4 37.9q-11 38.9-3.3 43.5c3.7 2.2 9.2 1.8 16.4-1.1 3.6-1.5 7.1-3.4 10.6-5.6-3.7-6.9-5-15.6-3.7-26.1 1.1-10 5-18.2 11.5-24.5 3-2.9 6.2-4.9 9.7-6 3.5-1.1 7-1.3 10.3-0.3 3.5 1 5.9 2.8 7.1 5.4 1.2 2.7 1.2 5.9-0.1 9.7-3 8.6-11.5 18.2-25.6 28.6-0.1 2.8 0.3 5.8 1.2 8.8 1.9 6.1 5.5 9.7 10.9 11 8.8 2 17.1-0.3 24.8-6.9 0.7-0.3 1.2-0.5 1.7-0.5 0.9 0 0.7 0.8-0.6 2.3zm-194.8-22.8c5.2-2.9 9.9-6.3 14.2-10.4 8.5-8.1 10.4-15.2 5.5-21.3-2.1-2.5-4.3-2.8-6.8-0.7-2.1 1.8-4.3 5.1-6.4 9.9-4.3 9.6-6.5 17.1-6.5 22.5zm156.6 0c5.2-2.9 10-6.3 14.2-10.4 8.5-8.1 10.4-15.2 5.5-21.3-2.1-2.5-4.3-2.8-6.8-0.7-2.1 1.8-4.3 5.1-6.4 9.9-4.4 9.6-6.5 17.1-6.5 22.5z"/>
			<path id="Layer" fill-rule="evenodd" class="s2" d="m407.8 550c-5.9 14.3-13.6 21.1-23.1 20.5-5.9-0.4-9.1-4.4-9.5-12.1q-0.4-11.1 6.3-18.6c3.7-4.1 7.3-6 10.6-5.6 1.2 0.2 2.2 0.6 3 1.4 0.7 0.7 1 1.4 0.9 2.2-2.9 20.4-6.3 30-10.1 28.7 3.2 1.1 7.2-1.9 12-8.8 5.1-7.2 8.5-15.3 10.3-24.4q4.8-25.3-9.3-24.6c-3.5 0.2-8.4 2.5-14.5 7-2 1.5-4.3 3.3-6.9 5.5-3.1 2.6-4.9 4.1-5.2 4.3-1 21.3-3.3 42.5-6.8 63.7-7 42.5-16.6 63.8-28.7 63.8-8.8 0-14-7.4-15.7-22.2-1.7-14.5 0.4-31.5 6.4-51.1 8-26.3 20.4-47.5 37.4-63.5-3.4-15.8-6.5-26.3-9.5-31.5-1.9-3.4-2.4-6.4-1.5-8.9 0.4-1 1.8-2.8 4-5.4 1.6-1.8 3.3-2.9 5.2-3.2 2-0.3 3.2 0.5 3.4 2.4 2.8 19 4.5 33.2 5 42.4 12-8.3 22.1-11.5 30.5-9.6q9.2 2.1 10.8 17.7c1 10-0.6 20.1-5 29.9zm-39.6-21l-2.2 1.3c-9.4 11.7-17.1 25.8-23.1 42.2-5.5 15.1-8.8 29.5-9.8 43.2-1 15 1.1 24.1 6.6 27.3 3.7 2.1 9.9-3.6 14.3-14.6 4.3-10.7 7.9-24.8 10.6-42.1q5.7-35.9 3.6-57.3z"/>
			<path id="Layer" fill-rule="evenodd" class="s2" d="m305.6 557.5c0.1 1.2-0.3 2.3-1.3 3.3-2.5 2.5-5.2 4.7-8.3 6.6-4.5 2.7-8.8 3.9-12.7 3.5-5.5-0.5-9.4-2.4-11.5-5.7-1.2-1.9-2-4.6-2.3-8.3-1.4 2.2-3.4 4.4-5.8 6.6-4.9 4.4-9.7 6.6-14.3 6.5-2.8 0-5.2-1-7.3-3-1.1-1.1-2-2.4-2.8-4-1.1 1-2.3 2-3.7 2.9-7.6 3.5-14.3 5.2-20.2 5.1-10.5-0.2-18.4-5.6-23.7-16.3-5.3-10.8-6.9-24.8-4.8-42.1 2.4-19.9 8.1-38.4 17.2-55.5 4.7-8.8 9.5-15.4 14.6-19.6 5.6-4.7 11.1-6.2 16.6-4.5 7.1 2.3 10.8 8 11 16.9 0.2 7.9-2.2 17.7-7.3 29.6-10.1 23.6-23.2 43.1-39.4 58.5 0.1 4.3 0.8 8.8 2.3 13.3 3 9 8.1 13.9 15.3 14.6 8.5 0.4 15.4-1.6 20.8-5.8-0.1-0.4-0.3-0.6-0.4-1-2.1-7.3-1.8-15.8 1.1-25.4 2.7-9.5 6.4-17.2 11.1-23.2 4.4-5.7 8.8-8.7 13.1-8.9 1.6 0 3.8 0.3 6.6 1.2 2.7 0.8 4.6 1.6 5.6 2.4 0.9 0.7 1.8 2.3 2.7 4.6 0.7 2.1 1.2 3.8 1.3 5.2 0.1 1.2 0 1.7-0.3 1.8-0.2 0.1-0.7-0.3-1.3-1.2-0.2-0.3-0.4-1-0.7-1.9-0.4-1.3-0.6-2.2-0.8-2.6-0.9-2.2-2.3-3.4-4-3.5-2.6-0.1-5.8 2.1-9.4 6.8-4.3 5.6-7.9 13.1-10.7 22.5-2.9 9.5-4 17-3.6 22.4 0.4 4.6 1.9 6.9 4.4 7 2 0 5-1.7 8.9-5.2 3.4-3.1 6.3-6.2 8.5-9.3 3.4-19 5.9-29.6 7.6-31.7 1.3-1.6 4-2.8 8.1-3.7 1.7-0.3 3-0.4 4-0.3q1.7 0.2 1.2 1.2c-1.7 3.9-3.7 10-6.2 18.1-3.5 11.5-5 19.3-4.6 23.4 0.5 4.4 1.5 7.2 3.2 8.6 1.2 0.9 2.9 1.2 5.1 0.7 2-0.5 4.5-1.7 7.7-3.6q5.1-3.3 7.2-6c0.7-0.9 1.2-1.5 1.7-1.6 0.4-0.2 0.6 0 0.5 0.6zm-105.9-29.8l-0.3 1.5c8.8-11.5 17.1-24 24.6-37.4 15.2-26.8 19.6-44.8 13.3-54.1-3.1-4.6-7.1-3.4-11.8 3.7-4.1 5.9-8.3 15.4-12.8 28.5-9.9 29-14.3 48.3-13 57.8z"/>
		</g>
		<g id="Layer">
			<path id="Layer" class="s0" d="m762.8 757.7c-4.2 5.6-5 9.6-2.4 11.9 3 2.8 6.1 3.4 9.3 1.9 2.1-1 3.7-2.8 4.8-5.2 1.2-2.6 1.1-4.9-0.3-6.8-1.4-1.9-3.5-2.9-6.2-3.3-2.5-0.2-4.3 0.3-5.2 1.5z"/>
			<path id="Layer" class="s0" d="m893.3 878.7c-0.4 0.1-1 0.7-1.7 1.6q-2.1 2.7-7.2 6c-3.2 2-5.7 3.2-7.6 3.6-2.2 0.5-3.9 0.2-5.1-0.7-1.7-1.4-2.7-4.2-3.1-8.6-0.5-4.2 1.1-12 4.6-23.4 2.5-8.1 4.5-14.2 6.2-18.1q0.4-1.1-1.2-1.2c-1-0.1-2.3 0-4 0.3-4.1 0.9-6.8 2.1-8 3.7-1.7 2.1-4.3 12.7-7.7 31.8-2.2 3.1-5.1 6.2-8.5 9.4-3.9 3.5-6.9 5.2-8.9 5.2-2.5-0.1-4-2.4-4.4-7.1-0.5-5.4 0.7-12.9 3.5-22.5 2.8-9.4 6.4-16.9 10.7-22.6 3.6-4.7 6.8-7 9.4-6.9 1.7 0.1 3.1 1.3 4 3.5 0.2 0.5 0.4 1.3 0.8 2.7 0.3 1 0.5 1.6 0.7 1.9 0.6 0.9 1.1 1.3 1.3 1.2q0.4 0 0.3-1.8c-0.1-1.4-0.6-3.1-1.3-5.2-0.9-2.3-1.8-3.9-2.7-4.6-1-0.8-2.9-1.6-5.6-2.4-2.8-0.9-5-1.2-6.6-1.2q-6.5 0.3-13.2 9c-4.7 6-8.4 13.8-11.1 23.2-2.9 9.6-3.2 18.1-1.1 25.5 0.2 0.8 0.6 1.5 0.9 2.2-2 1.5-4.2 2.9-6.5 4q-7.4 3.3-12.9 2.1c-4.2-1-4.5-8.8-0.7-23.2 2.5-9.4 5.6-18.4 9.2-27 1.4-3.1 1.8-6 1.2-8.6-0.5-2.3-1.6-4.1-3.4-5.5-0.9-1-2.3-1.5-4.4-1.5-1.6 0-3.1 0.2-4.7 0.7-7.7 2.4-15.9 8.4-24.6 18.1-4.3 4.9-7.8 9.4-10.5 13.8 1-2.5 2.2-7.3 3.6-14.3 1.3-6.8 2-11 1.8-12.7-0.1-1.3-1.1-1.7-3.2-1.3-0.7 0.1-2.5 0.8-5.4 1.9-1.4 0.5-2.5 1.4-3.2 2.4-0.5 0.8-0.8 1.6-0.7 2.4 0.8 10.1 0.1 19.8-2.3 29-0.8 2.9-1.8 6.4-3.2 10.3-1.7 4.8-2.6 7.7-2.9 8.6-0.7 2.2-1.3 5.8-1.6 5.9-4 2-8 2.5-12 1.6-3.9-1-3.6-10.7 0.8-29.2 3.7-15.4 7-26.2 9.9-32.3 1.3-2.7 0.9-4.4-1.1-5.1-0.7-0.2-1.7-0.4-3-0.5-1.6-0.1-2.6-0.2-2.9-0.3-2.2-0.4-4.6 1-7 4.3-6.4 15.8-10.5 30.3-12.3 43.3-0.8 5.5-0.5 10.1 0.8 13.9-1.7 1.2-3.5 2.2-5.5 3.2q-7.4 3.3-12.9 2.1c-4.3-1-4.5-8.8-0.7-23.2q3.7-14.1 9.3-27c1.3-3.1 1.7-6 1.2-8.6-0.5-2.3-1.6-4.1-3.4-5.5-0.9-1-2.3-1.5-4.4-1.5-1.6 0-3.1 0.2-4.7 0.7-7.7 2.4-15.9 8.4-24.6 18.1-4.3 4.9-7.8 9.4-10.5 13.8 1-2.5 2.2-7.3 3.6-14.3 1.3-6.8 1.9-11 1.8-12.7-0.1-1.3-1.1-1.7-3.2-1.3-0.7 0.1-2.5 0.8-5.4 1.9-1.4 0.5-2.5 1.4-3.2 2.4-0.5 0.8-0.8 1.6-0.7 2.4 0.8 10.1 0.1 19.8-2.3 29-0.7 2.9-1.8 6.4-3.2 10.3-1.7 4.8-2.6 7.7-3 8.6-1.3 4.5-0.5 7 2.5 7.6 0.5 0.1 2.9-0.1 7.4-0.7 0.8-0.1 1.4-1 2-2.8 0.3-0.9 0.8-3.2 1.6-6.9 1.9-8.3 4.2-15.1 7-20.3 5.2-9.8 11.5-17.8 18.7-23.9q4.3-3.8 7.2-5.1c1.6-0.8 2.8-1.1 3.8-1.1l0.1 0.3c0.4 1.4 0.1 3.3-0.9 5.8-0.3 0.8-0.8 1.7-1.3 2.9q-1.2 2.2-1.2 2.4c-4.4 9.5-6.6 14.2-6.5 14-0.4 0.9-0.7 1.7-1.1 2.6-3 8.3-4.1 15.7-3.4 22.1 0.9 8.5 5.2 13 13 13.5 9.9 0.6 17.9-1.5 23.9-6.4 2.3 4.1 6 6.4 11.5 6.5 7.3 0.2 13.1-1 17.7-3.2 0.2 0.1 0.3 0.2 0.5 0.2 0.4 0.1 2.9-0.1 7.4-0.7 0.8-0.1 1.4-1 2-2.8 0.3-0.9 0.8-3.2 1.6-6.9 1.9-8.3 4.2-15.1 7-20.3 5.2-9.8 11.5-17.8 18.7-23.9 3-2.5 5.3-4.2 7.2-5.1 1.6-0.8 2.8-1.1 3.8-1.1l0.1 0.3c0.4 1.4 0.1 3.3-0.9 5.8-0.3 0.8-0.8 1.7-1.3 2.9q-1.2 2.2-1.2 2.4c-4.4 9.5-6.6 14.2-6.5 14-0.4 0.9-0.7 1.7-1.1 2.6-2.9 8.3-4.1 15.7-3.4 22.1 0.9 8.5 5.2 13 13 13.5 10.4 0.7 18.6-1.8 24.8-7.3 0.8 1.4 1.6 2.5 2.6 3.5 2.1 2 4.5 3 7.2 3.1 4.7 0.1 9.4-2.1 14.3-6.5 2.4-2.2 4.4-4.4 5.8-6.7 0.3 3.7 1.1 6.4 2.3 8.3 2.1 3.3 6 5.2 11.5 5.7 3.9 0.4 8.2-0.8 12.7-3.5 3.1-1.9 5.8-4.1 8.3-6.7 1-1 1.4-2.1 1.3-3.3 0.4-0.6 0.2-0.7-0.1-0.6z"/>
			<path id="Layer" class="s0" d="m536.3 757.7c-4.2 5.6-5 9.6-2.4 11.9 3 2.8 6.1 3.4 9.4 1.9 2.1-1 3.8-2.8 4.9-5.2 1.2-2.6 1.1-4.9-0.3-6.8-1.4-1.9-3.5-2.9-6.2-3.3q-4-0.3-5.4 1.5z"/>
			<path id="Layer" fill-rule="evenodd" class="s0" d="m621.8 882.3c-2.4 2.8-5.3 5.1-8.9 6.9-5.6 2.7-12.2 3.9-19.7 3.5-7.6-0.4-13.3-3.7-17.3-9.7-2 1.3-4.7 2.7-8.2 4.3-8 3.6-15.6 5.4-22.7 5.4-6.2 0-10.2-1.8-12.3-5.1-4.9 3.5-11.7 5.3-20.7 5.1-5.9-0.1-9.9-2.7-12.1-7.6-1.3 0.6-2.7 1.4-4.4 2.1-8 3.6-15.6 5.4-22.7 5.4-6.7 0-10.9-2.1-12.8-6-1.2 0.8-2.3 1.6-3.7 2.3-5.6 2.7-12.1 3.9-19.7 3.5-8.5-0.5-14.7-4.4-18.7-11.7-3.8-6.9-5.1-15.7-3.8-26.3 1.1-10 5-18.2 11.5-24.5 3-2.9 6.3-4.9 9.7-6 3.5-1.1 7-1.3 10.3-0.3 3.5 1 5.8 2.8 7.1 5.4 1.2 2.7 1.2 5.9-0.1 9.7-3 8.6-11.5 18.2-25.6 28.6-0.2 2.8 0.3 5.8 1.2 8.8 1.9 6.1 5.5 9.7 10.9 11 7 1.6 13.6 0.4 19.9-3.4-0.3-2.1-0.4-5.4-0.4-10 0-4.4 1.8-13.4 5.4-27.2 4.2-16 9-30.9 14.5-44.6-8.9-3.9-19.9-5.9-33.1-5.9-15.4 0-30.8 2.9-46.2 8.6-2.6 1-3.8 1-3.5 0 0.4-1 1.4-2 3.2-3.1 5.5-3.3 14.8-6.2 28-8.7 20-3.7 37.9-2.5 53.5 3.8 5.3-15.6 8.9-26.2 10.7-32 0.4-1.6 0.9-3.4 1.3-5.3 0.4-1.9 0.6-3 0.7-3.3 0.5-1.4 2-2.3 4.4-2.4q6.8-0.3 9.3 0c3.1 0.4 4 1.6 2.5 3.4-1.6 2.1-4.3 8.5-8.2 19.1-3.7 10.4-6.2 18.4-7.5 23.9 8.3 4.6 17.7 5.6 28.2 6.1 4.4 0.2 8.4-0.2 12.1-1.2 4-1.1 6.5-1.7 7.4-1.7 1.2 0 1.6 0.8 1.9 1.6 0.1 0.3 0.5 2.5 0.7 4.3 0 0.6 0.2 1.2 0.4 2 0.2 0.7 0.3 1.2 0.3 1.4 0 0.8-0.8 1.3-2.3 1.4-10.7 0.9-19.7 0.6-27.2-0.8-5-1-10.1-2.3-15.2-4.1-5.8-2-8.8-3-9-3.1-4.7 12.3-8.8 24.9-12.4 37.9q-10.9 38.9-3.3 43.5c3.7 2.2 9.2 1.8 16.4-1.1q3.8-1.5 7.5-3.6c-1-3.6-1.3-7.8-0.6-12.8 1.8-13.1 5.9-27.5 12.3-43.4 2.4-3.3 4.8-4.7 7-4.3q0.6 0.1 3 0.3c1.3 0.1 2.3 0.3 3 0.5 2 0.7 2.4 2.4 1.1 5.1q-4.3 9.3-9.9 32.4c-4.4 18.5-4.7 28.2-0.8 29.2 4 0.9 8 0.4 12-1.6 1.3-0.6 3.1-1.8 5.3-3.4-0.3-2-0.5-5.5-0.5-10.7 0-4.4 1.8-13.4 5.4-27.2 4.2-16 9-30.9 14.5-44.6-8.9-4-10.2-9.1-22.1-7.1-5.6 1-11.5-3.8-2.1-3.9 10.9-0.1 18.4 2.4 26.3 5.7 5.3-15.6 8.9-26.2 10.7-32 0.4-1.6 0.9-3.4 1.3-5.3 0.4-1.9 0.6-3 0.7-3.3 0.5-1.4 2-2.3 4.4-2.4q6.8-0.3 9.3 0c3.1 0.4 4 1.6 2.5 3.4-1.7 2.1-4.4 8.5-8.3 19.1-3.7 10.4-6.2 18.4-7.5 23.9 8.2 4.6 17.6 7.2 28.1 7.7 4.4 0.2 8.4-0.2 12.1-1.2 4-1.1 6.5-1.7 7.4-1.7q1.7 0 2.1 1.2c0.2 0.3 0.3 1.3 0.5 3.1 0 0.6 0.2 1.2 0.4 2 0.2 0.7 0.3 1.2 0.3 1.4 0 0.8-0.8 1.3-2.3 1.4-10.7 0.9-19.7 0.6-27.2-0.8-5-1-10.1-2.3-15.2-4.1-5.8-2-8.8-3-9-3.1-4.7 12.3-8.8 24.9-12.4 37.9q-10.9 38.8-3.3 43.5c3.7 2.2 9.2 1.8 16.4-1.1 3.6-1.5 7.1-3.4 10.6-5.6-3.7-6.9-5-15.6-3.7-26.1 1.1-10 5-18.2 11.5-24.5 3-2.9 6.2-4.9 9.7-6 3.5-1.1 7-1.3 10.3-0.3 3.5 1 5.9 2.8 7.1 5.4 1.2 2.7 1.2 5.9-0.1 9.7-3 8.6-11.5 18.2-25.6 28.6-0.1 2.8 0.3 5.8 1.2 8.8 1.9 6.1 5.5 9.7 10.9 11 8.8 2 17.1-0.3 24.8-6.9 0.7-0.3 1.2-0.5 1.7-0.5 0.9 0 0.7 0.7-0.6 2.3zm-194.7-22.9c5.2-2.9 9.9-6.3 14.2-10.4 8.5-8.1 10.4-15.2 5.5-21.3-2.1-2.5-4.3-2.8-6.8-0.7-2.1 1.8-4.3 5.1-6.4 9.9-4.4 9.6-6.6 17.2-6.5 22.5zm156.5 0c5.2-2.9 10-6.3 14.2-10.4 8.5-8.1 10.4-15.2 5.5-21.3-2.1-2.5-4.3-2.8-6.8-0.7-2.1 1.8-4.3 5.1-6.4 9.9-4.3 9.6-6.5 17.2-6.5 22.5z"/>
			<path id="Layer" fill-rule="evenodd" class="s0" d="m403.9 871.9c-5.9 14.3-13.6 21.1-23.1 20.5-5.9-0.4-9.1-4.4-9.5-12.1q-0.4-11.1 6.3-18.6c3.7-4.1 7.3-6 10.6-5.6 1.2 0.2 2.2 0.6 3 1.4 0.7 0.7 1 1.4 0.9 2.2-2.9 20.4-6.3 30-10.1 28.7 3.2 1.1 7.2-1.9 12-8.8 5.1-7.2 8.5-15.3 10.3-24.4q4.8-25.3-9.3-24.6c-3.5 0.2-8.4 2.5-14.5 7-2 1.5-4.3 3.3-6.9 5.5-3.1 2.6-4.9 4.1-5.2 4.3-1 21.3-3.3 42.5-6.8 63.7-7 42.5-16.6 63.8-28.7 63.8-8.8 0-14-7.4-15.7-22.2-1.7-14.5 0.4-31.5 6.4-51.1 8-26.3 20.4-47.5 37.4-63.5-3.4-15.8-6.5-26.3-9.5-31.5-1.9-3.4-2.4-6.4-1.5-8.9 0.4-1 1.8-2.8 4-5.4 1.6-1.8 3.3-2.9 5.2-3.2 2.1-0.3 3.2 0.5 3.4 2.4 2.8 19 4.5 33.2 5 42.4 12-8.3 22.1-11.5 30.5-9.6q9.2 2.1 10.8 17.7c1 10-0.6 20.1-5 29.9zm-39.6-21l-2.2 1.3c-9.4 11.7-17.1 25.8-23.1 42.2-5.5 15.1-8.8 29.5-9.8 43.2-1 15 1.1 24.1 6.6 27.3 3.7 2.1 9.9-3.6 14.3-14.6 4.3-10.7 7.9-24.8 10.6-42.1q5.7-36 3.6-57.3z"/>
			<path id="Layer" fill-rule="evenodd" class="s0" d="m301.7 879.3c0.1 1.2-0.3 2.3-1.3 3.3-2.5 2.5-5.2 4.7-8.3 6.6-4.5 2.7-8.8 3.9-12.7 3.5-5.5-0.5-9.4-2.4-11.5-5.7-1.2-1.9-2-4.6-2.3-8.3-1.4 2.2-3.4 4.4-5.8 6.6-4.9 4.4-9.7 6.6-14.3 6.5-2.8 0-5.2-1-7.3-3-1.1-1.1-2-2.4-2.8-4-1.1 1-2.3 2-3.7 2.9-7.6 3.5-14.3 5.2-20.2 5.1-10.5-0.2-18.4-5.6-23.7-16.3-5.3-10.8-6.9-24.8-4.8-42.1 2.4-19.9 8.1-38.4 17.2-55.5 4.7-8.8 9.5-15.4 14.6-19.6 5.6-4.7 11.1-6.2 16.6-4.5 7.1 2.3 10.8 8 11 16.9 0.2 7.9-2.2 17.7-7.3 29.6-10.1 23.6-23.2 43.1-39.4 58.5 0.1 4.3 0.8 8.8 2.3 13.3 3 9 8.1 13.9 15.3 14.6 8.5 0.4 15.4-1.6 20.8-5.8-0.1-0.4-0.3-0.6-0.4-1-2.1-7.3-1.8-15.8 1.1-25.4 2.7-9.5 6.4-17.2 11.1-23.2 4.4-5.7 8.8-8.7 13.1-8.9 1.6 0 3.8 0.3 6.6 1.2 2.7 0.8 4.6 1.6 5.6 2.4 0.9 0.7 1.8 2.3 2.7 4.6 0.7 2.1 1.2 3.8 1.3 5.2 0.1 1.2 0 1.7-0.3 1.8-0.2 0.1-0.7-0.3-1.3-1.2-0.2-0.3-0.4-1-0.7-1.9-0.4-1.3-0.6-2.2-0.8-2.6-0.9-2.2-2.3-3.4-4-3.5-2.6-0.1-5.8 2.1-9.4 6.8-4.3 5.6-7.9 13.1-10.7 22.5-2.9 9.5-4 17-3.6 22.4 0.4 4.6 1.9 6.9 4.4 7 2 0 5-1.7 8.9-5.2 3.4-3.1 6.3-6.2 8.5-9.3 3.4-19 5.9-29.6 7.6-31.7 1.3-1.6 4-2.8 8.1-3.7 1.7-0.3 3-0.4 4-0.3q1.6 0.2 1.2 1.2c-1.7 3.9-3.7 10-6.2 18.1-3.5 11.5-5 19.3-4.6 23.4 0.5 4.4 1.5 7.2 3.2 8.6 1.2 0.9 2.9 1.2 5.1 0.7 2-0.5 4.5-1.7 7.7-3.6q5.1-3.3 7.2-6c0.7-0.9 1.2-1.5 1.7-1.6 0.4-0.1 0.6 0.1 0.5 0.6zm-105.9-29.7l-0.3 1.5c8.8-11.5 17.1-24 24.6-37.4 15.2-26.8 19.6-44.8 13.3-54.1-3.1-4.6-7.1-3.4-11.8 3.7-4.1 5.9-8.3 15.4-12.8 28.5-9.9 29-14.3 48.2-13 57.8z"/>
			<path id="Layer" class="s3" d="m766.7 762.6c-4.2 5.6-5 9.6-2.4 11.9 3 2.8 6.1 3.4 9.3 1.9 2.1-1 3.7-2.8 4.8-5.2 1.2-2.6 1.1-4.9-0.3-6.8-1.4-1.9-3.5-2.9-6.2-3.3-2.5-0.2-4.3 0.3-5.2 1.5z"/>
			<path id="Layer" class="s3" d="m897.1 883.6c-0.4 0.1-1 0.7-1.7 1.6q-2.1 2.7-7.2 6c-3.2 2-5.7 3.2-7.6 3.6-2.2 0.5-3.9 0.2-5.1-0.7-1.7-1.4-2.7-4.2-3.1-8.6-0.5-4.2 1.1-12 4.6-23.4 2.5-8.1 4.5-14.2 6.2-18.1q0.4-1.1-1.2-1.2c-1-0.1-2.3 0-4 0.3-4.1 0.9-6.8 2.1-8 3.7-1.7 2.1-4.3 12.7-7.7 31.8-2.2 3.1-5.1 6.2-8.5 9.4-3.9 3.5-6.9 5.2-8.9 5.2-2.5-0.1-4-2.4-4.4-7.1-0.5-5.4 0.7-12.9 3.5-22.5 2.8-9.4 6.4-16.9 10.7-22.6 3.6-4.7 6.8-7 9.4-6.9 1.7 0.1 3.1 1.3 4 3.5 0.2 0.5 0.4 1.3 0.8 2.7 0.3 1 0.5 1.6 0.7 1.9 0.6 0.9 1.1 1.3 1.4 1.2q0.4 0 0.3-1.8c-0.1-1.4-0.6-3.1-1.3-5.2-0.9-2.3-1.8-3.9-2.7-4.6-1-0.8-2.9-1.6-5.6-2.4-2.8-0.9-5-1.2-6.6-1.2q-6.5 0.3-13.2 9c-4.7 6-8.4 13.8-11.1 23.2-2.9 9.6-3.2 18.1-1.1 25.5 0.2 0.8 0.6 1.5 0.9 2.2-2 1.5-4.2 2.9-6.5 4q-7.4 3.3-12.9 2.1c-4.2-1-4.5-8.8-0.7-23.2 2.5-9.4 5.6-18.4 9.2-27 1.3-3.1 1.8-6 1.2-8.6-0.5-2.3-1.6-4.1-3.4-5.5-0.9-1-2.3-1.5-4.4-1.5-1.6 0-3.1 0.2-4.7 0.7-7.7 2.4-15.9 8.4-24.6 18.1-4.3 4.9-7.8 9.4-10.5 13.8 1-2.5 2.2-7.3 3.6-14.3 1.3-6.8 2-11 1.8-12.7-0.1-1.3-1.1-1.7-3.2-1.3-0.7 0.1-2.5 0.8-5.4 1.9-1.4 0.5-2.5 1.4-3.2 2.4-0.5 0.8-0.8 1.6-0.7 2.4 0.8 10.1 0.1 19.8-2.3 29-0.8 2.9-1.8 6.4-3.2 10.3-1.7 4.8-2.6 7.7-2.9 8.6-0.7 2.2-1.3 5.8-1.6 5.9-4 2-8 2.5-12 1.6-3.9-1-3.6-10.7 0.8-29.2 3.7-15.4 7-26.2 9.9-32.3 1.3-2.7 0.9-4.4-1.1-5.1-0.7-0.2-1.7-0.4-3-0.5-1.6-0.1-2.6-0.2-2.9-0.3-2.2-0.4-4.6 1-7 4.3-6.4 15.8-10.5 30.3-12.3 43.3-0.8 5.5-0.5 10.1 0.8 13.9-1.7 1.2-3.5 2.2-5.5 3.2q-7.4 3.3-12.9 2.1c-4.3-1-4.5-8.8-0.7-23.2q3.7-14.1 9.3-27c1.4-3.1 1.7-6 1.2-8.6-0.5-2.3-1.6-4.1-3.4-5.5-0.9-1-2.3-1.5-4.4-1.5-1.6 0-3.1 0.2-4.7 0.7-7.7 2.4-15.9 8.4-24.6 18.1-4.3 4.9-7.8 9.4-10.5 13.8 1-2.5 2.2-7.3 3.6-14.3 1.3-6.8 1.9-11 1.8-12.7-0.1-1.3-1.1-1.7-3.2-1.3-0.7 0.1-2.5 0.8-5.4 1.9-1.4 0.5-2.5 1.4-3.2 2.4-0.5 0.8-0.8 1.6-0.7 2.4 0.8 10.1 0.1 19.8-2.3 29-0.7 2.9-1.8 6.4-3.2 10.3-1.7 4.8-2.6 7.7-3 8.6-1.3 4.5-0.5 7 2.5 7.6 0.5 0.1 2.9-0.1 7.4-0.7 0.8-0.1 1.4-1 2-2.8 0.3-0.9 0.8-3.2 1.6-6.9 1.9-8.3 4.2-15.1 7-20.3 5.2-9.8 11.5-17.8 18.7-23.9q4.3-3.8 7.2-5.1c1.6-0.8 2.8-1.1 3.8-1.1l0.1 0.3c0.4 1.4 0.1 3.3-0.9 5.8-0.3 0.8-0.8 1.7-1.3 2.9q-1.2 2.2-1.2 2.4c-4.4 9.5-6.6 14.2-6.5 14-0.4 0.9-0.7 1.7-1.1 2.6-3 8.3-4.1 15.7-3.4 22.1 0.9 8.5 5.2 13 13 13.5 9.9 0.6 17.9-1.5 23.9-6.4 2.3 4.1 6 6.4 11.5 6.5 7.3 0.2 13.1-1 17.7-3.2 0.2 0.1 0.3 0.2 0.5 0.2 0.4 0.1 2.9-0.1 7.4-0.7 0.8-0.1 1.4-1 2-2.8 0.3-0.9 0.8-3.2 1.6-6.9 1.9-8.3 4.2-15.1 7-20.3 5.2-9.8 11.5-17.8 18.7-23.9 3-2.5 5.3-4.2 7.2-5.1 1.6-0.8 2.8-1.1 3.8-1.1l0.1 0.3c0.4 1.4 0.1 3.3-0.9 5.8-0.3 0.8-0.8 1.7-1.3 2.9q-1.2 2.2-1.2 2.4c-4.4 9.5-6.6 14.2-6.5 14-0.4 0.9-0.7 1.7-1.1 2.6-2.9 8.3-4.1 15.7-3.4 22.1 0.9 8.5 5.2 13 13 13.5 10.4 0.7 18.6-1.8 24.8-7.3 0.8 1.4 1.6 2.5 2.6 3.5 2.1 2 4.5 3 7.2 3.1 4.7 0.1 9.4-2.1 14.3-6.5 2.4-2.2 4.4-4.4 5.8-6.7 0.3 3.7 1.1 6.4 2.3 8.3 2.1 3.3 6 5.2 11.5 5.7 3.9 0.4 8.2-0.8 12.7-3.5 3.1-1.9 5.8-4.1 8.3-6.7 1-1 1.4-2.1 1.3-3.3 0.4-0.5 0.2-0.7-0.2-0.6z"/>
			<path id="Layer" class="s3" d="m540.2 762.6c-4.2 5.6-5 9.6-2.4 11.9 3 2.8 6.1 3.4 9.4 1.9 2.1-1 3.8-2.8 4.9-5.2 1.2-2.6 1.1-4.9-0.3-6.8-1.4-1.9-3.5-2.9-6.2-3.3q-4.1-0.3-5.4 1.5z"/>
			<path id="Layer" fill-rule="evenodd" class="s3" d="m625.7 887.2c-2.4 2.8-5.3 5.1-8.9 6.9-5.6 2.7-12.2 3.9-19.7 3.5-7.6-0.4-13.3-3.7-17.3-9.7-2 1.3-4.7 2.7-8.2 4.3-8 3.6-15.6 5.4-22.7 5.4-6.2 0-10.2-1.8-12.3-5.1-4.9 3.5-11.7 5.3-20.7 5.1-5.9-0.1-9.9-2.7-12.1-7.6-1.3 0.6-2.7 1.4-4.4 2.1-8 3.6-15.6 5.4-22.7 5.4-6.7 0-10.9-2.1-12.8-6-1.2 0.8-2.3 1.6-3.7 2.3-5.6 2.7-12.1 3.9-19.7 3.5-8.5-0.5-14.7-4.4-18.7-11.7-3.8-6.9-5.1-15.7-3.8-26.3 1.1-10 5-18.2 11.5-24.5 3-2.9 6.3-4.9 9.7-6 3.5-1.1 7-1.3 10.3-0.3 3.5 1 5.8 2.8 7.1 5.4 1.2 2.7 1.2 5.9-0.1 9.7-3 8.6-11.5 18.2-25.6 28.6-0.2 2.8 0.3 5.8 1.2 8.8 1.9 6.1 5.5 9.7 10.9 11 7 1.6 13.6 0.4 19.9-3.4-0.3-2.1-0.4-5.4-0.4-10 0-4.4 1.8-13.4 5.4-27.2 4.2-16 9-30.9 14.5-44.6-8.9-3.9-19.9-5.9-33.1-5.9-15.4 0-30.8 2.9-46.2 8.6-2.6 1-3.8 1-3.5 0 0.4-1 1.4-2 3.2-3.1 5.5-3.3 14.8-6.2 28-8.7 20-3.7 37.9-2.5 53.5 3.8 5.3-15.6 8.9-26.2 10.7-32 0.4-1.6 0.9-3.4 1.3-5.3 0.4-1.9 0.6-3 0.7-3.3 0.5-1.4 2-2.3 4.4-2.4q6.8-0.3 9.3 0c3.1 0.4 4 1.6 2.5 3.4-1.6 2.1-4.3 8.5-8.2 19.1-3.7 10.4-6.2 18.4-7.5 23.9 8.3 4.6 17.7 5.6 28.2 6.1 4.4 0.2 8.4-0.2 12.1-1.2 4-1.1 6.5-1.7 7.4-1.7 1.2 0 1.6 0.8 1.9 1.6 0.1 0.3 0.5 2.5 0.7 4.3 0 0.6 0.2 1.2 0.4 2 0.2 0.7 0.3 1.2 0.3 1.4 0 0.8-0.8 1.3-2.3 1.4-10.7 0.9-19.7 0.6-27.2-0.8-5-1-10.1-2.3-15.2-4.1-5.8-2-8.8-3-9-3.1-4.7 12.3-8.8 24.9-12.4 37.9q-10.9 38.8-3.3 43.5c3.7 2.2 9.2 1.8 16.4-1.1q3.8-1.5 7.5-3.6c-1-3.6-1.3-7.8-0.6-12.8 1.8-13.1 5.9-27.5 12.3-43.4 2.4-3.3 4.8-4.7 7-4.3q0.6 0.1 3 0.3c1.3 0.1 2.3 0.3 3 0.5 2 0.7 2.4 2.4 1.1 5.1q-4.3 9.3-9.9 32.4c-4.4 18.5-4.7 28.2-0.8 29.2 4 0.9 8 0.4 12-1.6 1.3-0.6 3.1-1.8 5.3-3.4-0.3-2-0.5-5.5-0.5-10.7 0-4.4 1.8-13.4 5.4-27.2 4.2-16 9-30.9 14.5-44.6-8.9-4-10.2-9.1-22.1-7.1-5.6 1-11.5-3.8-2.1-3.9 10.9-0.1 18.4 2.4 26.3 5.7 5.3-15.6 8.9-26.2 10.7-32 0.4-1.6 0.9-3.4 1.3-5.3 0.4-1.9 0.6-3 0.7-3.3 0.5-1.4 2-2.3 4.4-2.4q6.7-0.3 9.3 0c3.1 0.4 4 1.6 2.5 3.4-1.7 2.1-4.4 8.5-8.3 19.1-3.7 10.4-6.2 18.4-7.5 23.9 8.2 4.6 17.6 7.2 28.1 7.7 4.4 0.2 8.4-0.2 12.1-1.2 4-1.1 6.5-1.7 7.4-1.7q1.6 0 2.1 1.2c0.2 0.3 0.3 1.3 0.5 3.1 0 0.6 0.2 1.2 0.4 2 0.2 0.7 0.3 1.2 0.3 1.4 0 0.8-0.8 1.3-2.3 1.4-10.7 0.9-19.7 0.6-27.2-0.8-5-1-10.1-2.3-15.2-4.1-5.8-2-8.8-3-9-3.1-4.7 12.3-8.8 24.9-12.4 37.9q-11 38.8-3.3 43.5c3.7 2.2 9.2 1.8 16.4-1.1 3.6-1.5 7.1-3.4 10.6-5.6-3.7-6.9-5-15.6-3.7-26.1 1.1-10 5-18.2 11.5-24.5 3-2.9 6.2-4.9 9.7-6 3.5-1.1 7-1.3 10.3-0.3 3.5 1 5.9 2.8 7.1 5.4 1.2 2.7 1.2 5.9-0.1 9.7-3 8.6-11.5 18.2-25.6 28.6-0.1 2.8 0.3 5.8 1.2 8.8 1.9 6.1 5.5 9.7 10.9 11 8.8 2 17.1-0.3 24.8-6.9 0.7-0.3 1.2-0.5 1.7-0.5 0.9 0 0.7 0.8-0.6 2.3zm-194.8-22.8c5.2-2.9 9.9-6.3 14.2-10.4 8.5-8.1 10.4-15.2 5.5-21.3-2.1-2.5-4.3-2.8-6.8-0.7-2.1 1.8-4.3 5.1-6.4 9.9-4.3 9.6-6.5 17.1-6.5 22.5zm156.6 0c5.2-2.9 10-6.3 14.2-10.4 8.5-8.1 10.4-15.2 5.5-21.3-2.1-2.5-4.3-2.8-6.8-0.7-2.1 1.8-4.3 5.1-6.4 9.9-4.4 9.6-6.5 17.1-6.5 22.5z"/>
			<path id="Layer" fill-rule="evenodd" class="s3" d="m407.8 876.8c-5.9 14.3-13.6 21.1-23.1 20.5-5.9-0.4-9.1-4.4-9.5-12.1q-0.4-11.1 6.3-18.6c3.7-4.1 7.3-6 10.6-5.6 1.2 0.2 2.2 0.6 3 1.4 0.7 0.7 1 1.4 0.9 2.2-2.9 20.4-6.3 30-10.1 28.7 3.2 1.1 7.2-1.9 12-8.8 5.1-7.2 8.5-15.3 10.3-24.4q4.8-25.3-9.3-24.6c-3.5 0.2-8.4 2.5-14.5 7-2 1.5-4.3 3.3-6.9 5.5-3.1 2.6-4.9 4.1-5.2 4.3-1 21.3-3.3 42.5-6.8 63.7-7 42.5-16.6 63.8-28.7 63.8-8.8 0-14-7.4-15.7-22.2-1.7-14.5 0.4-31.5 6.4-51.1 8-26.3 20.4-47.5 37.4-63.5-3.4-15.8-6.5-26.3-9.5-31.5-1.9-3.4-2.4-6.4-1.5-8.9 0.4-1 1.8-2.8 4-5.4 1.6-1.8 3.3-2.9 5.2-3.2 2-0.3 3.2 0.5 3.4 2.4 2.8 19 4.5 33.2 5 42.4 12-8.3 22.1-11.5 30.5-9.6q9.2 2.1 10.8 17.7c1 10-0.6 20.1-5 29.9zm-39.6-21l-2.2 1.3c-9.4 11.7-17.1 25.8-23.1 42.2-5.5 15.1-8.8 29.5-9.8 43.2-1 15 1.1 24.1 6.6 27.3 3.7 2.1 9.9-3.6 14.3-14.6 4.3-10.7 7.9-24.8 10.6-42.1q5.7-35.8 3.6-57.3z"/>
			<path id="Layer" fill-rule="evenodd" class="s3" d="m305.6 884.3c0.1 1.2-0.3 2.3-1.3 3.3-2.5 2.5-5.2 4.7-8.3 6.6-4.5 2.7-8.8 3.9-12.7 3.5-5.5-0.5-9.4-2.4-11.5-5.7-1.2-1.9-2-4.6-2.3-8.3-1.4 2.2-3.4 4.4-5.8 6.6-4.9 4.4-9.7 6.6-14.3 6.5-2.8 0-5.2-1-7.3-3-1.1-1.1-2-2.4-2.8-4-1.1 1-2.3 2-3.7 2.9-7.6 3.5-14.3 5.2-20.2 5.1-10.5-0.2-18.4-5.6-23.7-16.3-5.3-10.8-6.9-24.8-4.8-42.1 2.4-19.9 8.1-38.4 17.2-55.5 4.7-8.8 9.5-15.4 14.6-19.6 5.6-4.7 11.1-6.2 16.6-4.5 7.1 2.3 10.8 8 11 16.9 0.2 7.9-2.2 17.7-7.3 29.6-10.1 23.6-23.2 43.1-39.4 58.5 0.1 4.3 0.8 8.8 2.3 13.3 3 9 8.1 13.9 15.3 14.6 8.5 0.4 15.4-1.6 20.8-5.8-0.1-0.4-0.3-0.6-0.4-1-2.1-7.3-1.8-15.8 1.1-25.4 2.7-9.5 6.4-17.2 11.1-23.2 4.4-5.7 8.8-8.7 13.1-8.9 1.6 0 3.8 0.3 6.6 1.2 2.7 0.8 4.6 1.6 5.6 2.4 0.9 0.7 1.8 2.3 2.7 4.6 0.7 2.1 1.2 3.8 1.3 5.2 0.1 1.2 0 1.7-0.3 1.8-0.2 0.1-0.7-0.3-1.3-1.2-0.2-0.3-0.4-1-0.7-1.9-0.4-1.3-0.6-2.2-0.8-2.6-0.9-2.2-2.3-3.4-4-3.5-2.6-0.1-5.8 2.1-9.4 6.8-4.3 5.6-7.9 13.1-10.7 22.5-2.9 9.5-4 17-3.6 22.4 0.4 4.6 1.9 6.9 4.4 7 2 0 5-1.7 8.9-5.2 3.4-3.1 6.3-6.2 8.5-9.3 3.4-19 5.9-29.6 7.6-31.7 1.3-1.6 4-2.8 8.1-3.7 1.7-0.3 3-0.4 4-0.3q1.7 0.2 1.2 1.2c-1.7 3.9-3.7 10-6.2 18.1-3.5 11.5-5 19.3-4.6 23.4 0.5 4.4 1.5 7.2 3.2 8.6 1.2 0.9 2.9 1.2 5.1 0.7 2-0.5 4.5-1.7 7.7-3.6q5.1-3.3 7.2-6c0.7-0.9 1.2-1.5 1.7-1.6 0.4-0.2 0.6 0 0.5 0.6zm-105.9-29.8l-0.3 1.5c8.8-11.5 17.1-24 24.6-37.4 15.2-26.8 19.6-44.8 13.3-54.1-3.1-4.6-7.1-3.4-11.8 3.7-4.1 5.9-8.3 15.4-12.8 28.5-9.9 29-14.3 48.3-13 57.8z"/>
		</g>
	</g>
</svg>